<mxfile host="app.diagrams.net" modified="2023-03-25T23:40:36.792Z" agent="Mozilla/5.0 (Windows NT 10.0; Win64; x64) AppleWebKit/537.36 (KHTML, like Gecko) Chrome/111.0.0.0 Safari/537.36" etag="YtZmTJZ9LvyAr1XZaZip" version="21.1.1" type="google">
  <diagram name="Página-1" id="3h7qh6CnIOmWa3giQOZi">
    <mxGraphModel grid="1" page="1" gridSize="10" guides="1" tooltips="1" connect="1" arrows="1" fold="1" pageScale="1" pageWidth="4000" pageHeight="2300" math="0" shadow="0">
      <root>
        <mxCell id="0" />
        <mxCell id="1" parent="0" />
        <mxCell id="zVnAbdgR_E_ziGiumIPv-10" value="&lt;font style=&quot;vertical-align: inherit;&quot;&gt;&lt;font style=&quot;vertical-align: inherit;&quot;&gt;&lt;font style=&quot;vertical-align: inherit;&quot;&gt;&lt;font style=&quot;vertical-align: inherit;&quot;&gt;&lt;b&gt;CASO DE USO (MÓDULO GESTIÓN DE USUARIOS)&lt;/b&gt;&lt;/font&gt;&lt;/font&gt;&lt;/font&gt;&lt;/font&gt;" style="whiteSpace=wrap;html=1;aspect=fixed;verticalAlign=top;" vertex="1" parent="1">
          <mxGeometry x="-2150" y="130" width="450" height="450" as="geometry" />
        </mxCell>
        <mxCell id="zVnAbdgR_E_ziGiumIPv-28" style="edgeStyle=none;rounded=0;orthogonalLoop=1;jettySize=auto;html=1;exitX=1;exitY=0.3333333333333333;exitDx=0;exitDy=0;exitPerimeter=0;entryX=0;entryY=0.5;entryDx=0;entryDy=0;endArrow=none;endFill=0;" edge="1" parent="1" source="zVnAbdgR_E_ziGiumIPv-7" target="zVnAbdgR_E_ziGiumIPv-11">
          <mxGeometry relative="1" as="geometry" />
        </mxCell>
        <mxCell id="zVnAbdgR_E_ziGiumIPv-30" style="edgeStyle=none;rounded=0;orthogonalLoop=1;jettySize=auto;html=1;exitX=1;exitY=0.3333333333333333;exitDx=0;exitDy=0;exitPerimeter=0;entryX=0;entryY=0.5;entryDx=0;entryDy=0;endArrow=none;endFill=0;" edge="1" parent="1" source="zVnAbdgR_E_ziGiumIPv-7" target="zVnAbdgR_E_ziGiumIPv-12">
          <mxGeometry relative="1" as="geometry" />
        </mxCell>
        <mxCell id="zVnAbdgR_E_ziGiumIPv-31" style="edgeStyle=none;rounded=0;orthogonalLoop=1;jettySize=auto;html=1;exitX=1;exitY=0.3333333333333333;exitDx=0;exitDy=0;exitPerimeter=0;entryX=0;entryY=0.5;entryDx=0;entryDy=0;endArrow=none;endFill=0;" edge="1" parent="1" source="zVnAbdgR_E_ziGiumIPv-7" target="zVnAbdgR_E_ziGiumIPv-13">
          <mxGeometry relative="1" as="geometry" />
        </mxCell>
        <mxCell id="zVnAbdgR_E_ziGiumIPv-32" style="edgeStyle=none;rounded=0;orthogonalLoop=1;jettySize=auto;html=1;exitX=1;exitY=0.3333333333333333;exitDx=0;exitDy=0;exitPerimeter=0;entryX=0;entryY=0.5;entryDx=0;entryDy=0;endArrow=none;endFill=0;" edge="1" parent="1" source="zVnAbdgR_E_ziGiumIPv-7" target="zVnAbdgR_E_ziGiumIPv-14">
          <mxGeometry relative="1" as="geometry" />
        </mxCell>
        <mxCell id="zVnAbdgR_E_ziGiumIPv-7" value="&lt;font style=&quot;vertical-align: inherit;&quot;&gt;&lt;font style=&quot;vertical-align: inherit;&quot;&gt;&lt;font style=&quot;vertical-align: inherit;&quot;&gt;&lt;font style=&quot;vertical-align: inherit;&quot;&gt;&lt;font style=&quot;vertical-align: inherit;&quot;&gt;&lt;font style=&quot;vertical-align: inherit;&quot;&gt;&lt;font style=&quot;vertical-align: inherit;&quot;&gt;&lt;font style=&quot;vertical-align: inherit;&quot;&gt;&lt;font style=&quot;vertical-align: inherit;&quot;&gt;&lt;font style=&quot;vertical-align: inherit;&quot;&gt;&lt;font style=&quot;vertical-align: inherit;&quot;&gt;&lt;font style=&quot;vertical-align: inherit;&quot;&gt;COORDINADOR&lt;/font&gt;&lt;/font&gt;&lt;/font&gt;&lt;/font&gt;&lt;/font&gt;&lt;/font&gt;&lt;/font&gt;&lt;/font&gt;&lt;br&gt;&lt;/font&gt;&lt;/font&gt;&lt;/font&gt;&lt;/font&gt;" style="shape=umlActor;verticalLabelPosition=bottom;verticalAlign=top;html=1;" vertex="1" parent="1">
          <mxGeometry x="-2292" y="297" width="30" height="60" as="geometry" />
        </mxCell>
        <mxCell id="zVnAbdgR_E_ziGiumIPv-11" value="&lt;font style=&quot;vertical-align: inherit;&quot;&gt;&lt;font style=&quot;vertical-align: inherit;&quot;&gt;&lt;font style=&quot;vertical-align: inherit;&quot;&gt;&lt;font style=&quot;vertical-align: inherit;&quot;&gt;Seleccione el perfil correspondiente&lt;/font&gt;&lt;/font&gt;&lt;/font&gt;&lt;/font&gt;" style="ellipse;whiteSpace=wrap;html=1;" vertex="1" parent="1">
          <mxGeometry x="-2092" y="192" width="120" height="70" as="geometry" />
        </mxCell>
        <mxCell id="zVnAbdgR_E_ziGiumIPv-12" value="&lt;font style=&quot;vertical-align: inherit;&quot;&gt;&lt;font style=&quot;vertical-align: inherit;&quot;&gt;&lt;font style=&quot;vertical-align: inherit;&quot;&gt;&lt;font style=&quot;vertical-align: inherit;&quot;&gt;&lt;font style=&quot;vertical-align: inherit;&quot;&gt;&lt;font style=&quot;vertical-align: inherit;&quot;&gt;Ingresar usuario &lt;br&gt;y contraseña&lt;/font&gt;&lt;/font&gt;&lt;/font&gt;&lt;/font&gt;&lt;/font&gt;&lt;/font&gt;" style="ellipse;whiteSpace=wrap;html=1;" vertex="1" parent="1">
          <mxGeometry x="-2092" y="282" width="120" height="60" as="geometry" />
        </mxCell>
        <mxCell id="zVnAbdgR_E_ziGiumIPv-13" value="&lt;font style=&quot;vertical-align: inherit;&quot;&gt;&lt;font style=&quot;vertical-align: inherit;&quot;&gt;Oprimir el módulo&lt;br&gt;&lt;/font&gt;&lt;/font&gt;&lt;font style=&quot;vertical-align: inherit;&quot;&gt;&lt;font style=&quot;vertical-align: inherit;&quot;&gt;gestión de usuarios&lt;/font&gt;&lt;/font&gt;" style="ellipse;whiteSpace=wrap;html=1;" vertex="1" parent="1">
          <mxGeometry x="-2097" y="362" width="130" height="60" as="geometry" />
        </mxCell>
        <mxCell id="zVnAbdgR_E_ziGiumIPv-23" style="edgeStyle=none;rounded=0;orthogonalLoop=1;jettySize=auto;html=1;exitX=1;exitY=0.5;exitDx=0;exitDy=0;entryX=0;entryY=0.5;entryDx=0;entryDy=0;dashed=1;" edge="1" parent="1" source="zVnAbdgR_E_ziGiumIPv-14" target="zVnAbdgR_E_ziGiumIPv-21">
          <mxGeometry relative="1" as="geometry" />
        </mxCell>
        <mxCell id="zVnAbdgR_E_ziGiumIPv-27" value="INCLUDE" style="edgeLabel;html=1;align=center;verticalAlign=middle;resizable=0;points=[];rotation=-1;" vertex="1" connectable="0" parent="zVnAbdgR_E_ziGiumIPv-23">
          <mxGeometry x="0.2235" y="1" relative="1" as="geometry">
            <mxPoint x="-27" y="1" as="offset" />
          </mxGeometry>
        </mxCell>
        <mxCell id="zVnAbdgR_E_ziGiumIPv-14" value="Oprimir cerrar&lt;br&gt;sesión" style="ellipse;whiteSpace=wrap;html=1;" vertex="1" parent="1">
          <mxGeometry x="-2086.5" y="446" width="95" height="50" as="geometry" />
        </mxCell>
        <mxCell id="zVnAbdgR_E_ziGiumIPv-19" style="edgeStyle=none;rounded=0;orthogonalLoop=1;jettySize=auto;html=1;entryX=1;entryY=0.5;entryDx=0;entryDy=0;dashed=1;exitX=0;exitY=0.5;exitDx=0;exitDy=0;" edge="1" parent="1" source="fHkMPUWU0p0HW0aizDeC-3" target="zVnAbdgR_E_ziGiumIPv-13">
          <mxGeometry relative="1" as="geometry">
            <mxPoint x="-1856" y="393" as="sourcePoint" />
          </mxGeometry>
        </mxCell>
        <mxCell id="zVnAbdgR_E_ziGiumIPv-25" value="EXTEND" style="edgeLabel;html=1;align=center;verticalAlign=middle;resizable=0;points=[];" vertex="1" connectable="0" parent="zVnAbdgR_E_ziGiumIPv-19">
          <mxGeometry x="0.1448" y="1" relative="1" as="geometry">
            <mxPoint x="15" y="-1" as="offset" />
          </mxGeometry>
        </mxCell>
        <mxCell id="zVnAbdgR_E_ziGiumIPv-21" value="&lt;font style=&quot;vertical-align: inherit;&quot;&gt;&lt;font style=&quot;vertical-align: inherit;&quot;&gt;&lt;span style=&quot;font-weight: 400;&quot;&gt;Confirmar cerrar sesión&lt;/span&gt;&lt;br&gt;&lt;/font&gt;&lt;/font&gt;" style="ellipse;whiteSpace=wrap;html=1;fontStyle=1" vertex="1" parent="1">
          <mxGeometry x="-1854" y="446" width="110" height="50" as="geometry" />
        </mxCell>
        <mxCell id="zVnAbdgR_E_ziGiumIPv-33" value="&lt;font style=&quot;vertical-align: inherit;&quot;&gt;&lt;font style=&quot;vertical-align: inherit;&quot;&gt;&lt;font style=&quot;vertical-align: inherit;&quot;&gt;&lt;font style=&quot;vertical-align: inherit;&quot;&gt;&lt;b&gt;CASO DE USO (MÓDULO TRÁMITES)&lt;/b&gt;&lt;/font&gt;&lt;/font&gt;&lt;/font&gt;&lt;/font&gt;" style="whiteSpace=wrap;html=1;aspect=fixed;verticalAlign=top;" vertex="1" parent="1">
          <mxGeometry x="-3022" y="880" width="440" height="440" as="geometry" />
        </mxCell>
        <mxCell id="zVnAbdgR_E_ziGiumIPv-34" style="edgeStyle=none;rounded=0;orthogonalLoop=1;jettySize=auto;html=1;exitX=1;exitY=0.3333333333333333;exitDx=0;exitDy=0;exitPerimeter=0;entryX=0;entryY=0.5;entryDx=0;entryDy=0;endArrow=none;endFill=0;" edge="1" parent="1" source="zVnAbdgR_E_ziGiumIPv-38" target="zVnAbdgR_E_ziGiumIPv-39">
          <mxGeometry relative="1" as="geometry" />
        </mxCell>
        <mxCell id="zVnAbdgR_E_ziGiumIPv-35" style="edgeStyle=none;rounded=0;orthogonalLoop=1;jettySize=auto;html=1;exitX=1;exitY=0.3333333333333333;exitDx=0;exitDy=0;exitPerimeter=0;entryX=0;entryY=0.5;entryDx=0;entryDy=0;endArrow=none;endFill=0;" edge="1" parent="1" source="zVnAbdgR_E_ziGiumIPv-38" target="zVnAbdgR_E_ziGiumIPv-40">
          <mxGeometry relative="1" as="geometry" />
        </mxCell>
        <mxCell id="zVnAbdgR_E_ziGiumIPv-36" style="edgeStyle=none;rounded=0;orthogonalLoop=1;jettySize=auto;html=1;exitX=1;exitY=0.3333333333333333;exitDx=0;exitDy=0;exitPerimeter=0;entryX=0;entryY=0.5;entryDx=0;entryDy=0;endArrow=none;endFill=0;" edge="1" parent="1" source="zVnAbdgR_E_ziGiumIPv-38" target="zVnAbdgR_E_ziGiumIPv-41">
          <mxGeometry relative="1" as="geometry" />
        </mxCell>
        <mxCell id="zVnAbdgR_E_ziGiumIPv-37" style="edgeStyle=none;rounded=0;orthogonalLoop=1;jettySize=auto;html=1;exitX=1;exitY=0.3333333333333333;exitDx=0;exitDy=0;exitPerimeter=0;entryX=0;entryY=0.5;entryDx=0;entryDy=0;endArrow=none;endFill=0;" edge="1" parent="1" source="zVnAbdgR_E_ziGiumIPv-38" target="zVnAbdgR_E_ziGiumIPv-44">
          <mxGeometry relative="1" as="geometry" />
        </mxCell>
        <mxCell id="zVnAbdgR_E_ziGiumIPv-38" value="&lt;font style=&quot;vertical-align: inherit;&quot;&gt;&lt;font style=&quot;vertical-align: inherit;&quot;&gt;&lt;font style=&quot;vertical-align: inherit;&quot;&gt;&lt;font style=&quot;vertical-align: inherit;&quot;&gt;&lt;font style=&quot;vertical-align: inherit;&quot;&gt;&lt;font style=&quot;vertical-align: inherit;&quot;&gt;&lt;font style=&quot;vertical-align: inherit;&quot;&gt;&lt;font style=&quot;vertical-align: inherit;&quot;&gt;&lt;font style=&quot;vertical-align: inherit;&quot;&gt;&lt;font style=&quot;vertical-align: inherit;&quot;&gt;&lt;font style=&quot;vertical-align: inherit;&quot;&gt;&lt;font style=&quot;vertical-align: inherit;&quot;&gt;COORDINADOR&lt;/font&gt;&lt;/font&gt;&lt;/font&gt;&lt;/font&gt;&lt;/font&gt;&lt;/font&gt;&lt;/font&gt;&lt;/font&gt;&lt;br&gt;&lt;/font&gt;&lt;/font&gt;&lt;/font&gt;&lt;/font&gt;" style="shape=umlActor;verticalLabelPosition=bottom;verticalAlign=top;html=1;" vertex="1" parent="1">
          <mxGeometry x="-3152" y="1067" width="30" height="60" as="geometry" />
        </mxCell>
        <mxCell id="zVnAbdgR_E_ziGiumIPv-39" value="&lt;font style=&quot;vertical-align: inherit;&quot;&gt;&lt;font style=&quot;vertical-align: inherit;&quot;&gt;&lt;font style=&quot;vertical-align: inherit;&quot;&gt;&lt;font style=&quot;vertical-align: inherit;&quot;&gt;Seleccione el perfil correspondiente&lt;/font&gt;&lt;/font&gt;&lt;/font&gt;&lt;/font&gt;" style="ellipse;whiteSpace=wrap;html=1;" vertex="1" parent="1">
          <mxGeometry x="-2952" y="940" width="120" height="70" as="geometry" />
        </mxCell>
        <mxCell id="zVnAbdgR_E_ziGiumIPv-40" value="&lt;font style=&quot;vertical-align: inherit;&quot;&gt;&lt;font style=&quot;vertical-align: inherit;&quot;&gt;&lt;font style=&quot;vertical-align: inherit;&quot;&gt;&lt;font style=&quot;vertical-align: inherit;&quot;&gt;&lt;font style=&quot;vertical-align: inherit;&quot;&gt;&lt;font style=&quot;vertical-align: inherit;&quot;&gt;Ingresar usuario &lt;br&gt;y contraseña&lt;/font&gt;&lt;/font&gt;&lt;/font&gt;&lt;/font&gt;&lt;/font&gt;&lt;/font&gt;" style="ellipse;whiteSpace=wrap;html=1;" vertex="1" parent="1">
          <mxGeometry x="-2952" y="1030" width="120" height="60" as="geometry" />
        </mxCell>
        <mxCell id="zVnAbdgR_E_ziGiumIPv-41" value="&lt;font style=&quot;vertical-align: inherit;&quot;&gt;&lt;font style=&quot;vertical-align: inherit;&quot;&gt;Oprimir el&lt;br&gt;módulo&amp;nbsp;&lt;/font&gt;&lt;/font&gt;trámites" style="ellipse;whiteSpace=wrap;html=1;" vertex="1" parent="1">
          <mxGeometry x="-2949" y="1110" width="115" height="60" as="geometry" />
        </mxCell>
        <mxCell id="zVnAbdgR_E_ziGiumIPv-42" style="edgeStyle=none;rounded=0;orthogonalLoop=1;jettySize=auto;html=1;exitX=1;exitY=0.5;exitDx=0;exitDy=0;entryX=0;entryY=0.5;entryDx=0;entryDy=0;dashed=1;" edge="1" parent="1" source="zVnAbdgR_E_ziGiumIPv-44" target="zVnAbdgR_E_ziGiumIPv-54">
          <mxGeometry relative="1" as="geometry" />
        </mxCell>
        <mxCell id="zVnAbdgR_E_ziGiumIPv-43" value="INCLUDE" style="edgeLabel;html=1;align=center;verticalAlign=middle;resizable=0;points=[];" vertex="1" connectable="0" parent="zVnAbdgR_E_ziGiumIPv-42">
          <mxGeometry x="0.2235" y="1" relative="1" as="geometry">
            <mxPoint x="-27" y="2" as="offset" />
          </mxGeometry>
        </mxCell>
        <mxCell id="zVnAbdgR_E_ziGiumIPv-44" value="Oprimir cerrar&lt;br&gt;sesión" style="ellipse;whiteSpace=wrap;html=1;" vertex="1" parent="1">
          <mxGeometry x="-2939.5" y="1204" width="95" height="50" as="geometry" />
        </mxCell>
        <mxCell id="zVnAbdgR_E_ziGiumIPv-54" value="&lt;font style=&quot;vertical-align: inherit;&quot;&gt;&lt;font style=&quot;vertical-align: inherit;&quot;&gt;&lt;span style=&quot;font-weight: 400;&quot;&gt;Confirmar cerrar sesión&lt;/span&gt;&lt;br&gt;&lt;/font&gt;&lt;/font&gt;" style="ellipse;whiteSpace=wrap;html=1;fontStyle=1" vertex="1" parent="1">
          <mxGeometry x="-2722" y="1214" width="100" height="50" as="geometry" />
        </mxCell>
        <mxCell id="zVnAbdgR_E_ziGiumIPv-55" value="&lt;font style=&quot;vertical-align: inherit;&quot;&gt;&lt;font style=&quot;vertical-align: inherit;&quot;&gt;&lt;font style=&quot;vertical-align: inherit;&quot;&gt;&lt;font style=&quot;vertical-align: inherit;&quot;&gt;&lt;b&gt;CASO DE USO (MÓDULO GESTIÓN DE USUARIOS)&lt;/b&gt;&lt;/font&gt;&lt;/font&gt;&lt;/font&gt;&lt;/font&gt;" style="whiteSpace=wrap;html=1;aspect=fixed;verticalAlign=top;" vertex="1" parent="1">
          <mxGeometry x="-1440.5" y="120" width="510" height="510" as="geometry" />
        </mxCell>
        <mxCell id="zVnAbdgR_E_ziGiumIPv-56" style="edgeStyle=none;rounded=0;orthogonalLoop=1;jettySize=auto;html=1;exitX=1;exitY=0.3333333333333333;exitDx=0;exitDy=0;exitPerimeter=0;entryX=0;entryY=0.5;entryDx=0;entryDy=0;endArrow=none;endFill=0;" edge="1" parent="1" source="zVnAbdgR_E_ziGiumIPv-60" target="zVnAbdgR_E_ziGiumIPv-61">
          <mxGeometry relative="1" as="geometry" />
        </mxCell>
        <mxCell id="zVnAbdgR_E_ziGiumIPv-57" style="edgeStyle=none;rounded=0;orthogonalLoop=1;jettySize=auto;html=1;exitX=1;exitY=0.3333333333333333;exitDx=0;exitDy=0;exitPerimeter=0;entryX=0;entryY=0.5;entryDx=0;entryDy=0;endArrow=none;endFill=0;" edge="1" parent="1" source="zVnAbdgR_E_ziGiumIPv-60" target="zVnAbdgR_E_ziGiumIPv-62">
          <mxGeometry relative="1" as="geometry" />
        </mxCell>
        <mxCell id="zVnAbdgR_E_ziGiumIPv-58" style="edgeStyle=none;rounded=0;orthogonalLoop=1;jettySize=auto;html=1;exitX=1;exitY=0.3333333333333333;exitDx=0;exitDy=0;exitPerimeter=0;entryX=0;entryY=0.5;entryDx=0;entryDy=0;endArrow=none;endFill=0;" edge="1" parent="1" source="zVnAbdgR_E_ziGiumIPv-60" target="zVnAbdgR_E_ziGiumIPv-63">
          <mxGeometry relative="1" as="geometry" />
        </mxCell>
        <mxCell id="zVnAbdgR_E_ziGiumIPv-59" style="edgeStyle=none;rounded=0;orthogonalLoop=1;jettySize=auto;html=1;exitX=1;exitY=0.3333333333333333;exitDx=0;exitDy=0;exitPerimeter=0;entryX=0;entryY=0.5;entryDx=0;entryDy=0;endArrow=none;endFill=0;" edge="1" parent="1" source="zVnAbdgR_E_ziGiumIPv-60" target="zVnAbdgR_E_ziGiumIPv-66">
          <mxGeometry relative="1" as="geometry" />
        </mxCell>
        <mxCell id="zVnAbdgR_E_ziGiumIPv-60" value="&lt;font style=&quot;vertical-align: inherit;&quot;&gt;&lt;font style=&quot;vertical-align: inherit;&quot;&gt;&lt;font style=&quot;vertical-align: inherit;&quot;&gt;&lt;font style=&quot;vertical-align: inherit;&quot;&gt;DOCENTE&lt;br&gt;&lt;/font&gt;&lt;/font&gt;&lt;/font&gt;&lt;/font&gt;" style="shape=umlActor;verticalLabelPosition=bottom;verticalAlign=top;html=1;" vertex="1" parent="1">
          <mxGeometry x="-1567.5" y="349" width="30" height="60" as="geometry" />
        </mxCell>
        <mxCell id="zVnAbdgR_E_ziGiumIPv-61" value="&lt;font style=&quot;vertical-align: inherit;&quot;&gt;&lt;font style=&quot;vertical-align: inherit;&quot;&gt;&lt;font style=&quot;vertical-align: inherit;&quot;&gt;&lt;font style=&quot;vertical-align: inherit;&quot;&gt;Seleccione el perfil correspondiente&lt;/font&gt;&lt;/font&gt;&lt;/font&gt;&lt;/font&gt;" style="ellipse;whiteSpace=wrap;html=1;" vertex="1" parent="1">
          <mxGeometry x="-1367.5" y="189" width="120" height="70" as="geometry" />
        </mxCell>
        <mxCell id="zVnAbdgR_E_ziGiumIPv-62" value="&lt;font style=&quot;vertical-align: inherit;&quot;&gt;&lt;font style=&quot;vertical-align: inherit;&quot;&gt;&lt;font style=&quot;vertical-align: inherit;&quot;&gt;&lt;font style=&quot;vertical-align: inherit;&quot;&gt;&lt;font style=&quot;vertical-align: inherit;&quot;&gt;&lt;font style=&quot;vertical-align: inherit;&quot;&gt;Ingresar usuario &lt;br&gt;y contraseña&lt;/font&gt;&lt;/font&gt;&lt;/font&gt;&lt;/font&gt;&lt;/font&gt;&lt;/font&gt;" style="ellipse;whiteSpace=wrap;html=1;" vertex="1" parent="1">
          <mxGeometry x="-1367.5" y="279" width="120" height="60" as="geometry" />
        </mxCell>
        <mxCell id="zVnAbdgR_E_ziGiumIPv-63" value="&lt;font style=&quot;vertical-align: inherit;&quot;&gt;&lt;font style=&quot;vertical-align: inherit;&quot;&gt;Oprimir el módulo&lt;br&gt;&lt;/font&gt;&lt;/font&gt;&lt;font style=&quot;vertical-align: inherit;&quot;&gt;&lt;font style=&quot;vertical-align: inherit;&quot;&gt;gestión de usuarios&lt;/font&gt;&lt;/font&gt;" style="ellipse;whiteSpace=wrap;html=1;" vertex="1" parent="1">
          <mxGeometry x="-1372.5" y="359" width="130" height="60" as="geometry" />
        </mxCell>
        <mxCell id="zVnAbdgR_E_ziGiumIPv-64" style="edgeStyle=none;rounded=0;orthogonalLoop=1;jettySize=auto;html=1;exitX=1;exitY=0.5;exitDx=0;exitDy=0;entryX=0;entryY=0.5;entryDx=0;entryDy=0;dashed=1;" edge="1" parent="1" source="zVnAbdgR_E_ziGiumIPv-66" target="zVnAbdgR_E_ziGiumIPv-76">
          <mxGeometry relative="1" as="geometry" />
        </mxCell>
        <mxCell id="zVnAbdgR_E_ziGiumIPv-65" value="INCLUDE" style="edgeLabel;html=1;align=center;verticalAlign=middle;resizable=0;points=[];" vertex="1" connectable="0" parent="zVnAbdgR_E_ziGiumIPv-64">
          <mxGeometry x="0.2235" y="1" relative="1" as="geometry">
            <mxPoint x="-27" y="1" as="offset" />
          </mxGeometry>
        </mxCell>
        <mxCell id="zVnAbdgR_E_ziGiumIPv-66" value="Oprimir cerrar&lt;br&gt;sesión" style="ellipse;whiteSpace=wrap;html=1;" vertex="1" parent="1">
          <mxGeometry x="-1355" y="449" width="95" height="50" as="geometry" />
        </mxCell>
        <mxCell id="zVnAbdgR_E_ziGiumIPv-70" style="edgeStyle=none;rounded=0;orthogonalLoop=1;jettySize=auto;html=1;entryX=1;entryY=0.5;entryDx=0;entryDy=0;dashed=1;" edge="1" parent="1" source="zVnAbdgR_E_ziGiumIPv-72" target="zVnAbdgR_E_ziGiumIPv-63">
          <mxGeometry relative="1" as="geometry" />
        </mxCell>
        <mxCell id="zVnAbdgR_E_ziGiumIPv-71" value="EXTEND" style="edgeLabel;html=1;align=center;verticalAlign=middle;resizable=0;points=[];" vertex="1" connectable="0" parent="zVnAbdgR_E_ziGiumIPv-70">
          <mxGeometry x="0.1448" y="1" relative="1" as="geometry">
            <mxPoint x="15" y="-1" as="offset" />
          </mxGeometry>
        </mxCell>
        <mxCell id="zVnAbdgR_E_ziGiumIPv-72" value="&lt;font style=&quot;vertical-align: inherit;&quot;&gt;&lt;font style=&quot;vertical-align: inherit;&quot;&gt;Ver información personal de docentes, directivas y estudiantes&lt;br&gt;&lt;/font&gt;&lt;/font&gt;" style="ellipse;whiteSpace=wrap;html=1;" vertex="1" parent="1">
          <mxGeometry x="-1097.5" y="339" width="150" height="90" as="geometry" />
        </mxCell>
        <mxCell id="zVnAbdgR_E_ziGiumIPv-76" value="&lt;font style=&quot;vertical-align: inherit;&quot;&gt;&lt;font style=&quot;vertical-align: inherit;&quot;&gt;&lt;span style=&quot;font-weight: 400;&quot;&gt;Confirmar cerrar sesión&lt;/span&gt;&lt;br&gt;&lt;/font&gt;&lt;/font&gt;" style="ellipse;whiteSpace=wrap;html=1;fontStyle=1" vertex="1" parent="1">
          <mxGeometry x="-1087.5" y="449" width="110" height="50" as="geometry" />
        </mxCell>
        <mxCell id="zVnAbdgR_E_ziGiumIPv-78" value="&lt;font style=&quot;vertical-align: inherit;&quot;&gt;&lt;font style=&quot;vertical-align: inherit;&quot;&gt;&lt;font style=&quot;vertical-align: inherit;&quot;&gt;&lt;font style=&quot;vertical-align: inherit;&quot;&gt;&lt;b&gt;CASO DE USO (MÓDULO GESTIÓN DE USUARIOS)&lt;/b&gt;&lt;/font&gt;&lt;/font&gt;&lt;/font&gt;&lt;/font&gt;" style="whiteSpace=wrap;html=1;aspect=fixed;verticalAlign=top;" vertex="1" parent="1">
          <mxGeometry x="-730" y="120" width="530" height="530" as="geometry" />
        </mxCell>
        <mxCell id="zVnAbdgR_E_ziGiumIPv-79" style="edgeStyle=none;rounded=0;orthogonalLoop=1;jettySize=auto;html=1;exitX=1;exitY=0.3333333333333333;exitDx=0;exitDy=0;exitPerimeter=0;entryX=0;entryY=0.5;entryDx=0;entryDy=0;endArrow=none;endFill=0;" edge="1" parent="1" source="zVnAbdgR_E_ziGiumIPv-83" target="zVnAbdgR_E_ziGiumIPv-84">
          <mxGeometry relative="1" as="geometry" />
        </mxCell>
        <mxCell id="zVnAbdgR_E_ziGiumIPv-80" style="edgeStyle=none;rounded=0;orthogonalLoop=1;jettySize=auto;html=1;exitX=1;exitY=0.3333333333333333;exitDx=0;exitDy=0;exitPerimeter=0;entryX=0;entryY=0.5;entryDx=0;entryDy=0;endArrow=none;endFill=0;" edge="1" parent="1" source="zVnAbdgR_E_ziGiumIPv-83" target="zVnAbdgR_E_ziGiumIPv-85">
          <mxGeometry relative="1" as="geometry" />
        </mxCell>
        <mxCell id="zVnAbdgR_E_ziGiumIPv-81" style="edgeStyle=none;rounded=0;orthogonalLoop=1;jettySize=auto;html=1;exitX=1;exitY=0.3333333333333333;exitDx=0;exitDy=0;exitPerimeter=0;entryX=0;entryY=0.5;entryDx=0;entryDy=0;endArrow=none;endFill=0;" edge="1" parent="1" source="zVnAbdgR_E_ziGiumIPv-83" target="zVnAbdgR_E_ziGiumIPv-86">
          <mxGeometry relative="1" as="geometry" />
        </mxCell>
        <mxCell id="zVnAbdgR_E_ziGiumIPv-82" style="edgeStyle=none;rounded=0;orthogonalLoop=1;jettySize=auto;html=1;exitX=1;exitY=0.3333333333333333;exitDx=0;exitDy=0;exitPerimeter=0;entryX=0;entryY=0.5;entryDx=0;entryDy=0;endArrow=none;endFill=0;" edge="1" parent="1" source="zVnAbdgR_E_ziGiumIPv-83" target="zVnAbdgR_E_ziGiumIPv-89">
          <mxGeometry relative="1" as="geometry" />
        </mxCell>
        <mxCell id="zVnAbdgR_E_ziGiumIPv-83" value="&lt;font style=&quot;vertical-align: inherit;&quot;&gt;&lt;font style=&quot;vertical-align: inherit;&quot;&gt;&lt;font style=&quot;vertical-align: inherit;&quot;&gt;&lt;font style=&quot;vertical-align: inherit;&quot;&gt;ACUDIENTE&lt;br&gt;&lt;/font&gt;&lt;/font&gt;&lt;/font&gt;&lt;/font&gt;" style="shape=umlActor;verticalLabelPosition=bottom;verticalAlign=top;html=1;" vertex="1" parent="1">
          <mxGeometry x="-870" y="360" width="30" height="60" as="geometry" />
        </mxCell>
        <mxCell id="zVnAbdgR_E_ziGiumIPv-84" value="&lt;font style=&quot;vertical-align: inherit;&quot;&gt;&lt;font style=&quot;vertical-align: inherit;&quot;&gt;&lt;font style=&quot;vertical-align: inherit;&quot;&gt;&lt;font style=&quot;vertical-align: inherit;&quot;&gt;Seleccione el perfil correspondiente&lt;/font&gt;&lt;/font&gt;&lt;/font&gt;&lt;/font&gt;" style="ellipse;whiteSpace=wrap;html=1;" vertex="1" parent="1">
          <mxGeometry x="-670" y="200" width="120" height="70" as="geometry" />
        </mxCell>
        <mxCell id="zVnAbdgR_E_ziGiumIPv-85" value="&lt;font style=&quot;vertical-align: inherit;&quot;&gt;&lt;font style=&quot;vertical-align: inherit;&quot;&gt;&lt;font style=&quot;vertical-align: inherit;&quot;&gt;&lt;font style=&quot;vertical-align: inherit;&quot;&gt;&lt;font style=&quot;vertical-align: inherit;&quot;&gt;&lt;font style=&quot;vertical-align: inherit;&quot;&gt;Ingresar usuario &lt;br&gt;y contraseña&lt;/font&gt;&lt;/font&gt;&lt;/font&gt;&lt;/font&gt;&lt;/font&gt;&lt;/font&gt;" style="ellipse;whiteSpace=wrap;html=1;" vertex="1" parent="1">
          <mxGeometry x="-670" y="290" width="120" height="60" as="geometry" />
        </mxCell>
        <mxCell id="zVnAbdgR_E_ziGiumIPv-86" value="&lt;font style=&quot;vertical-align: inherit;&quot;&gt;&lt;font style=&quot;vertical-align: inherit;&quot;&gt;Oprimir el módulo&lt;br&gt;&lt;/font&gt;&lt;/font&gt;&lt;font style=&quot;vertical-align: inherit;&quot;&gt;&lt;font style=&quot;vertical-align: inherit;&quot;&gt;gestión de usuarios&lt;/font&gt;&lt;/font&gt;" style="ellipse;whiteSpace=wrap;html=1;" vertex="1" parent="1">
          <mxGeometry x="-675" y="370" width="130" height="60" as="geometry" />
        </mxCell>
        <mxCell id="zVnAbdgR_E_ziGiumIPv-87" style="edgeStyle=none;rounded=0;orthogonalLoop=1;jettySize=auto;html=1;exitX=1;exitY=0.5;exitDx=0;exitDy=0;entryX=0;entryY=0.5;entryDx=0;entryDy=0;dashed=1;" edge="1" parent="1" source="zVnAbdgR_E_ziGiumIPv-89" target="zVnAbdgR_E_ziGiumIPv-93">
          <mxGeometry relative="1" as="geometry" />
        </mxCell>
        <mxCell id="zVnAbdgR_E_ziGiumIPv-88" value="INCLUDE" style="edgeLabel;html=1;align=center;verticalAlign=middle;resizable=0;points=[];rotation=1;" vertex="1" connectable="0" parent="zVnAbdgR_E_ziGiumIPv-87">
          <mxGeometry x="0.2235" y="1" relative="1" as="geometry">
            <mxPoint x="-27" y="1" as="offset" />
          </mxGeometry>
        </mxCell>
        <mxCell id="zVnAbdgR_E_ziGiumIPv-89" value="Oprimir cerrar&lt;br&gt;sesión" style="ellipse;whiteSpace=wrap;html=1;" vertex="1" parent="1">
          <mxGeometry x="-657.5" y="460" width="95" height="50" as="geometry" />
        </mxCell>
        <mxCell id="zVnAbdgR_E_ziGiumIPv-90" style="edgeStyle=none;rounded=0;orthogonalLoop=1;jettySize=auto;html=1;entryX=1;entryY=0.5;entryDx=0;entryDy=0;dashed=1;" edge="1" parent="1" source="zVnAbdgR_E_ziGiumIPv-92" target="zVnAbdgR_E_ziGiumIPv-86">
          <mxGeometry relative="1" as="geometry" />
        </mxCell>
        <mxCell id="zVnAbdgR_E_ziGiumIPv-91" value="EXTEND" style="edgeLabel;html=1;align=center;verticalAlign=middle;resizable=0;points=[];" vertex="1" connectable="0" parent="zVnAbdgR_E_ziGiumIPv-90">
          <mxGeometry x="0.1448" y="1" relative="1" as="geometry">
            <mxPoint x="15" y="-1" as="offset" />
          </mxGeometry>
        </mxCell>
        <mxCell id="zVnAbdgR_E_ziGiumIPv-92" value="&lt;font style=&quot;vertical-align: inherit;&quot;&gt;&lt;font style=&quot;vertical-align: inherit;&quot;&gt;Ver información personal&lt;br&gt;del Director / Coordinador&lt;br&gt;o Docente&lt;br&gt;&lt;/font&gt;&lt;/font&gt;" style="ellipse;whiteSpace=wrap;html=1;" vertex="1" parent="1">
          <mxGeometry x="-415" y="352.5" width="169" height="77.5" as="geometry" />
        </mxCell>
        <mxCell id="zVnAbdgR_E_ziGiumIPv-93" value="&lt;font style=&quot;vertical-align: inherit;&quot;&gt;&lt;font style=&quot;vertical-align: inherit;&quot;&gt;&lt;span style=&quot;font-weight: 400;&quot;&gt;Confirmar cerrar sesión&lt;/span&gt;&lt;br&gt;&lt;/font&gt;&lt;/font&gt;" style="ellipse;whiteSpace=wrap;html=1;fontStyle=1" vertex="1" parent="1">
          <mxGeometry x="-385.5" y="460" width="110" height="50" as="geometry" />
        </mxCell>
        <mxCell id="zVnAbdgR_E_ziGiumIPv-96" style="edgeStyle=none;rounded=0;orthogonalLoop=1;jettySize=auto;html=1;exitX=0;exitY=0.5;exitDx=0;exitDy=0;entryX=1;entryY=0;entryDx=0;entryDy=0;endArrow=classic;endFill=1;dashed=1;startArrow=none;startFill=0;" edge="1" parent="1" source="zVnAbdgR_E_ziGiumIPv-95" target="zVnAbdgR_E_ziGiumIPv-41">
          <mxGeometry relative="1" as="geometry" />
        </mxCell>
        <mxCell id="zVnAbdgR_E_ziGiumIPv-97" value="EXTEND" style="edgeLabel;html=1;align=center;verticalAlign=middle;resizable=0;points=[];rotation=0;" vertex="1" connectable="0" parent="zVnAbdgR_E_ziGiumIPv-96">
          <mxGeometry x="0.1612" y="1" relative="1" as="geometry">
            <mxPoint x="15" y="-1" as="offset" />
          </mxGeometry>
        </mxCell>
        <mxCell id="zVnAbdgR_E_ziGiumIPv-95" value="Observar &lt;br&gt;registros&lt;br&gt;de cupos" style="ellipse;whiteSpace=wrap;html=1;" vertex="1" parent="1">
          <mxGeometry x="-2741" y="1040" width="100" height="72" as="geometry" />
        </mxCell>
        <mxCell id="zVnAbdgR_E_ziGiumIPv-117" value="&lt;font style=&quot;vertical-align: inherit;&quot;&gt;&lt;font style=&quot;vertical-align: inherit;&quot;&gt;&lt;font style=&quot;vertical-align: inherit;&quot;&gt;&lt;font style=&quot;vertical-align: inherit;&quot;&gt;&lt;b&gt;CASO DE USO (MÓDULO TRÁMITES)&lt;/b&gt;&lt;/font&gt;&lt;/font&gt;&lt;/font&gt;&lt;/font&gt;" style="whiteSpace=wrap;html=1;aspect=fixed;verticalAlign=top;" vertex="1" parent="1">
          <mxGeometry x="-2262" y="880" width="430" height="430" as="geometry" />
        </mxCell>
        <mxCell id="zVnAbdgR_E_ziGiumIPv-118" style="edgeStyle=none;rounded=0;orthogonalLoop=1;jettySize=auto;html=1;exitX=1;exitY=0.3333333333333333;exitDx=0;exitDy=0;exitPerimeter=0;entryX=0;entryY=0.5;entryDx=0;entryDy=0;endArrow=none;endFill=0;" edge="1" parent="1" source="zVnAbdgR_E_ziGiumIPv-122" target="zVnAbdgR_E_ziGiumIPv-123">
          <mxGeometry relative="1" as="geometry" />
        </mxCell>
        <mxCell id="zVnAbdgR_E_ziGiumIPv-119" style="edgeStyle=none;rounded=0;orthogonalLoop=1;jettySize=auto;html=1;exitX=1;exitY=0.3333333333333333;exitDx=0;exitDy=0;exitPerimeter=0;entryX=0;entryY=0.5;entryDx=0;entryDy=0;endArrow=none;endFill=0;" edge="1" parent="1" source="zVnAbdgR_E_ziGiumIPv-122" target="zVnAbdgR_E_ziGiumIPv-124">
          <mxGeometry relative="1" as="geometry" />
        </mxCell>
        <mxCell id="zVnAbdgR_E_ziGiumIPv-120" style="edgeStyle=none;rounded=0;orthogonalLoop=1;jettySize=auto;html=1;exitX=1;exitY=0.3333333333333333;exitDx=0;exitDy=0;exitPerimeter=0;entryX=0;entryY=0.5;entryDx=0;entryDy=0;endArrow=none;endFill=0;" edge="1" parent="1" source="zVnAbdgR_E_ziGiumIPv-122" target="zVnAbdgR_E_ziGiumIPv-125">
          <mxGeometry relative="1" as="geometry" />
        </mxCell>
        <mxCell id="zVnAbdgR_E_ziGiumIPv-121" style="edgeStyle=none;rounded=0;orthogonalLoop=1;jettySize=auto;html=1;exitX=1;exitY=0.3333333333333333;exitDx=0;exitDy=0;exitPerimeter=0;entryX=0;entryY=0.5;entryDx=0;entryDy=0;endArrow=none;endFill=0;" edge="1" parent="1" source="zVnAbdgR_E_ziGiumIPv-122" target="zVnAbdgR_E_ziGiumIPv-128">
          <mxGeometry relative="1" as="geometry" />
        </mxCell>
        <mxCell id="zVnAbdgR_E_ziGiumIPv-122" value="&lt;font style=&quot;vertical-align: inherit;&quot;&gt;&lt;font style=&quot;vertical-align: inherit;&quot;&gt;&lt;font style=&quot;vertical-align: inherit;&quot;&gt;&lt;font style=&quot;vertical-align: inherit;&quot;&gt;ACUDIENTE&lt;br&gt;&lt;/font&gt;&lt;/font&gt;&lt;/font&gt;&lt;/font&gt;" style="shape=umlActor;verticalLabelPosition=bottom;verticalAlign=top;html=1;" vertex="1" parent="1">
          <mxGeometry x="-2400" y="1063" width="30" height="60" as="geometry" />
        </mxCell>
        <mxCell id="zVnAbdgR_E_ziGiumIPv-123" value="&lt;font style=&quot;vertical-align: inherit;&quot;&gt;&lt;font style=&quot;vertical-align: inherit;&quot;&gt;&lt;font style=&quot;vertical-align: inherit;&quot;&gt;&lt;font style=&quot;vertical-align: inherit;&quot;&gt;Seleccione el perfil correspondiente&lt;/font&gt;&lt;/font&gt;&lt;/font&gt;&lt;/font&gt;" style="ellipse;whiteSpace=wrap;html=1;" vertex="1" parent="1">
          <mxGeometry x="-2200" y="940" width="120" height="70" as="geometry" />
        </mxCell>
        <mxCell id="zVnAbdgR_E_ziGiumIPv-124" value="&lt;font style=&quot;vertical-align: inherit;&quot;&gt;&lt;font style=&quot;vertical-align: inherit;&quot;&gt;&lt;font style=&quot;vertical-align: inherit;&quot;&gt;&lt;font style=&quot;vertical-align: inherit;&quot;&gt;&lt;font style=&quot;vertical-align: inherit;&quot;&gt;&lt;font style=&quot;vertical-align: inherit;&quot;&gt;Ingresar usuario &lt;br&gt;y contraseña&lt;/font&gt;&lt;/font&gt;&lt;/font&gt;&lt;/font&gt;&lt;/font&gt;&lt;/font&gt;" style="ellipse;whiteSpace=wrap;html=1;" vertex="1" parent="1">
          <mxGeometry x="-2200" y="1030" width="120" height="60" as="geometry" />
        </mxCell>
        <mxCell id="zVnAbdgR_E_ziGiumIPv-125" value="&lt;font style=&quot;vertical-align: inherit;&quot;&gt;&lt;font style=&quot;vertical-align: inherit;&quot;&gt;Oprimir el&lt;br&gt;módulo&amp;nbsp;&lt;/font&gt;&lt;/font&gt;trámites" style="ellipse;whiteSpace=wrap;html=1;" vertex="1" parent="1">
          <mxGeometry x="-2197" y="1110" width="115" height="60" as="geometry" />
        </mxCell>
        <mxCell id="zVnAbdgR_E_ziGiumIPv-126" style="edgeStyle=none;rounded=0;orthogonalLoop=1;jettySize=auto;html=1;exitX=1;exitY=0.5;exitDx=0;exitDy=0;entryX=0;entryY=0.5;entryDx=0;entryDy=0;dashed=1;" edge="1" parent="1" source="zVnAbdgR_E_ziGiumIPv-128" target="zVnAbdgR_E_ziGiumIPv-132">
          <mxGeometry relative="1" as="geometry" />
        </mxCell>
        <mxCell id="zVnAbdgR_E_ziGiumIPv-127" value="INCLUDE" style="edgeLabel;html=1;align=center;verticalAlign=middle;resizable=0;points=[];" vertex="1" connectable="0" parent="zVnAbdgR_E_ziGiumIPv-126">
          <mxGeometry x="0.2235" y="1" relative="1" as="geometry">
            <mxPoint x="-27" y="2" as="offset" />
          </mxGeometry>
        </mxCell>
        <mxCell id="zVnAbdgR_E_ziGiumIPv-128" value="Oprimir cerrar&lt;br&gt;sesión" style="ellipse;whiteSpace=wrap;html=1;" vertex="1" parent="1">
          <mxGeometry x="-2190.5" y="1197" width="95" height="50" as="geometry" />
        </mxCell>
        <mxCell id="zVnAbdgR_E_ziGiumIPv-132" value="&lt;font style=&quot;vertical-align: inherit;&quot;&gt;&lt;font style=&quot;vertical-align: inherit;&quot;&gt;&lt;span style=&quot;font-weight: 400;&quot;&gt;Confirmar cerrar sesión&lt;/span&gt;&lt;br&gt;&lt;/font&gt;&lt;/font&gt;" style="ellipse;whiteSpace=wrap;html=1;fontStyle=1" vertex="1" parent="1">
          <mxGeometry x="-1980" y="1197" width="100" height="50" as="geometry" />
        </mxCell>
        <mxCell id="zVnAbdgR_E_ziGiumIPv-133" style="edgeStyle=none;rounded=0;orthogonalLoop=1;jettySize=auto;html=1;exitX=0;exitY=0.5;exitDx=0;exitDy=0;entryX=1;entryY=0;entryDx=0;entryDy=0;endArrow=classic;endFill=1;dashed=1;startArrow=none;startFill=0;" edge="1" parent="1" source="zVnAbdgR_E_ziGiumIPv-135" target="zVnAbdgR_E_ziGiumIPv-125">
          <mxGeometry relative="1" as="geometry" />
        </mxCell>
        <mxCell id="zVnAbdgR_E_ziGiumIPv-134" value="EXTEND" style="edgeLabel;html=1;align=center;verticalAlign=middle;resizable=0;points=[];rotation=0;" vertex="1" connectable="0" parent="zVnAbdgR_E_ziGiumIPv-133">
          <mxGeometry x="0.1612" y="1" relative="1" as="geometry">
            <mxPoint x="20" y="-2" as="offset" />
          </mxGeometry>
        </mxCell>
        <mxCell id="zVnAbdgR_E_ziGiumIPv-135" value="Solicitar cupo" style="ellipse;whiteSpace=wrap;html=1;" vertex="1" parent="1">
          <mxGeometry x="-2000" y="1045" width="95" height="50" as="geometry" />
        </mxCell>
        <mxCell id="zVnAbdgR_E_ziGiumIPv-136" value="&lt;font style=&quot;vertical-align: inherit;&quot;&gt;&lt;font style=&quot;vertical-align: inherit;&quot;&gt;&lt;font style=&quot;vertical-align: inherit;&quot;&gt;&lt;font style=&quot;vertical-align: inherit;&quot;&gt;&lt;b&gt;CASO DE USO (MÓDULO CALENDARIO)&lt;/b&gt;&lt;/font&gt;&lt;/font&gt;&lt;/font&gt;&lt;/font&gt;" style="whiteSpace=wrap;html=1;aspect=fixed;verticalAlign=top;" vertex="1" parent="1">
          <mxGeometry x="-3050" y="1545" width="465" height="465" as="geometry" />
        </mxCell>
        <mxCell id="zVnAbdgR_E_ziGiumIPv-137" style="edgeStyle=none;rounded=0;orthogonalLoop=1;jettySize=auto;html=1;exitX=1;exitY=0.3333333333333333;exitDx=0;exitDy=0;exitPerimeter=0;entryX=0;entryY=0.5;entryDx=0;entryDy=0;endArrow=none;endFill=0;" edge="1" parent="1" source="zVnAbdgR_E_ziGiumIPv-141" target="zVnAbdgR_E_ziGiumIPv-142">
          <mxGeometry relative="1" as="geometry" />
        </mxCell>
        <mxCell id="zVnAbdgR_E_ziGiumIPv-138" style="edgeStyle=none;rounded=0;orthogonalLoop=1;jettySize=auto;html=1;exitX=1;exitY=0.3333333333333333;exitDx=0;exitDy=0;exitPerimeter=0;entryX=0;entryY=0.5;entryDx=0;entryDy=0;endArrow=none;endFill=0;" edge="1" parent="1" source="zVnAbdgR_E_ziGiumIPv-141" target="zVnAbdgR_E_ziGiumIPv-143">
          <mxGeometry relative="1" as="geometry" />
        </mxCell>
        <mxCell id="zVnAbdgR_E_ziGiumIPv-139" style="edgeStyle=none;rounded=0;orthogonalLoop=1;jettySize=auto;html=1;exitX=1;exitY=0.3333333333333333;exitDx=0;exitDy=0;exitPerimeter=0;entryX=0;entryY=0.5;entryDx=0;entryDy=0;endArrow=none;endFill=0;" edge="1" parent="1" source="zVnAbdgR_E_ziGiumIPv-141" target="zVnAbdgR_E_ziGiumIPv-144">
          <mxGeometry relative="1" as="geometry" />
        </mxCell>
        <mxCell id="zVnAbdgR_E_ziGiumIPv-140" style="edgeStyle=none;rounded=0;orthogonalLoop=1;jettySize=auto;html=1;exitX=1;exitY=0.3333333333333333;exitDx=0;exitDy=0;exitPerimeter=0;entryX=0;entryY=0.5;entryDx=0;entryDy=0;endArrow=none;endFill=0;" edge="1" parent="1" source="zVnAbdgR_E_ziGiumIPv-141" target="zVnAbdgR_E_ziGiumIPv-147">
          <mxGeometry relative="1" as="geometry" />
        </mxCell>
        <mxCell id="zVnAbdgR_E_ziGiumIPv-141" value="&lt;font style=&quot;vertical-align: inherit;&quot;&gt;&lt;font style=&quot;vertical-align: inherit;&quot;&gt;&lt;font style=&quot;vertical-align: inherit;&quot;&gt;&lt;font style=&quot;vertical-align: inherit;&quot;&gt;&lt;font style=&quot;vertical-align: inherit;&quot;&gt;&lt;font style=&quot;vertical-align: inherit;&quot;&gt;&lt;font style=&quot;vertical-align: inherit;&quot;&gt;&lt;font style=&quot;vertical-align: inherit;&quot;&gt;&lt;font style=&quot;vertical-align: inherit;&quot;&gt;&lt;font style=&quot;vertical-align: inherit;&quot;&gt;&lt;font style=&quot;vertical-align: inherit;&quot;&gt;&lt;font style=&quot;vertical-align: inherit;&quot;&gt;COORDINADOR&lt;/font&gt;&lt;/font&gt;&lt;/font&gt;&lt;/font&gt;&lt;/font&gt;&lt;/font&gt;&lt;/font&gt;&lt;/font&gt;&lt;br&gt;&lt;/font&gt;&lt;/font&gt;&lt;/font&gt;&lt;/font&gt;" style="shape=umlActor;verticalLabelPosition=bottom;verticalAlign=top;html=1;" vertex="1" parent="1">
          <mxGeometry x="-3152" y="1738" width="30" height="60" as="geometry" />
        </mxCell>
        <mxCell id="zVnAbdgR_E_ziGiumIPv-142" value="&lt;font style=&quot;vertical-align: inherit;&quot;&gt;&lt;font style=&quot;vertical-align: inherit;&quot;&gt;&lt;font style=&quot;vertical-align: inherit;&quot;&gt;&lt;font style=&quot;vertical-align: inherit;&quot;&gt;Seleccione el perfil correspondiente&lt;/font&gt;&lt;/font&gt;&lt;/font&gt;&lt;/font&gt;" style="ellipse;whiteSpace=wrap;html=1;" vertex="1" parent="1">
          <mxGeometry x="-2952" y="1625" width="120" height="70" as="geometry" />
        </mxCell>
        <mxCell id="zVnAbdgR_E_ziGiumIPv-143" value="&lt;font style=&quot;vertical-align: inherit;&quot;&gt;&lt;font style=&quot;vertical-align: inherit;&quot;&gt;&lt;font style=&quot;vertical-align: inherit;&quot;&gt;&lt;font style=&quot;vertical-align: inherit;&quot;&gt;&lt;font style=&quot;vertical-align: inherit;&quot;&gt;&lt;font style=&quot;vertical-align: inherit;&quot;&gt;Ingresar usuario &lt;br&gt;y contraseña&lt;/font&gt;&lt;/font&gt;&lt;/font&gt;&lt;/font&gt;&lt;/font&gt;&lt;/font&gt;" style="ellipse;whiteSpace=wrap;html=1;" vertex="1" parent="1">
          <mxGeometry x="-2952" y="1715" width="120" height="60" as="geometry" />
        </mxCell>
        <mxCell id="zVnAbdgR_E_ziGiumIPv-144" value="&lt;font style=&quot;vertical-align: inherit;&quot;&gt;&lt;font style=&quot;vertical-align: inherit;&quot;&gt;Oprimir&lt;br&gt;el&amp;nbsp;módulo&lt;br&gt;&lt;/font&gt;&lt;/font&gt;calendario" style="ellipse;whiteSpace=wrap;html=1;" vertex="1" parent="1">
          <mxGeometry x="-2949" y="1795" width="115" height="60" as="geometry" />
        </mxCell>
        <mxCell id="zVnAbdgR_E_ziGiumIPv-145" style="edgeStyle=none;rounded=0;orthogonalLoop=1;jettySize=auto;html=1;exitX=1;exitY=0.5;exitDx=0;exitDy=0;entryX=0;entryY=0.5;entryDx=0;entryDy=0;dashed=1;" edge="1" parent="1" source="zVnAbdgR_E_ziGiumIPv-147" target="zVnAbdgR_E_ziGiumIPv-151">
          <mxGeometry relative="1" as="geometry" />
        </mxCell>
        <mxCell id="zVnAbdgR_E_ziGiumIPv-146" value="INCLUDE" style="edgeLabel;html=1;align=center;verticalAlign=middle;resizable=0;points=[];" vertex="1" connectable="0" parent="zVnAbdgR_E_ziGiumIPv-145">
          <mxGeometry x="0.2235" y="1" relative="1" as="geometry">
            <mxPoint x="-27" y="2" as="offset" />
          </mxGeometry>
        </mxCell>
        <mxCell id="zVnAbdgR_E_ziGiumIPv-147" value="Oprimir cerrar&lt;br&gt;sesión" style="ellipse;whiteSpace=wrap;html=1;" vertex="1" parent="1">
          <mxGeometry x="-2939.5" y="1880" width="95" height="50" as="geometry" />
        </mxCell>
        <mxCell id="zVnAbdgR_E_ziGiumIPv-148" style="edgeStyle=none;rounded=0;orthogonalLoop=1;jettySize=auto;html=1;dashed=1;" edge="1" parent="1" source="zVnAbdgR_E_ziGiumIPv-150" target="zVnAbdgR_E_ziGiumIPv-144">
          <mxGeometry relative="1" as="geometry">
            <mxPoint x="-2832" y="1817" as="targetPoint" />
          </mxGeometry>
        </mxCell>
        <mxCell id="zVnAbdgR_E_ziGiumIPv-149" value="EXTEND" style="edgeLabel;html=1;align=center;verticalAlign=middle;resizable=0;points=[];rotation=0;" vertex="1" connectable="0" parent="zVnAbdgR_E_ziGiumIPv-148">
          <mxGeometry x="0.1448" y="1" relative="1" as="geometry">
            <mxPoint x="15" y="-4" as="offset" />
          </mxGeometry>
        </mxCell>
        <mxCell id="zVnAbdgR_E_ziGiumIPv-150" value="&lt;font style=&quot;vertical-align: inherit;&quot;&gt;&lt;font style=&quot;vertical-align: inherit;&quot;&gt;Realizar evento&lt;br&gt;&lt;/font&gt;&lt;/font&gt;" style="ellipse;whiteSpace=wrap;html=1;" vertex="1" parent="1">
          <mxGeometry x="-2733" y="1793" width="122" height="55" as="geometry" />
        </mxCell>
        <mxCell id="zVnAbdgR_E_ziGiumIPv-151" value="&lt;font style=&quot;vertical-align: inherit;&quot;&gt;&lt;font style=&quot;vertical-align: inherit;&quot;&gt;&lt;span style=&quot;font-weight: 400;&quot;&gt;Confirmar cerrar sesión&lt;/span&gt;&lt;br&gt;&lt;/font&gt;&lt;/font&gt;" style="ellipse;whiteSpace=wrap;html=1;fontStyle=1" vertex="1" parent="1">
          <mxGeometry x="-2742" y="1880" width="100" height="50" as="geometry" />
        </mxCell>
        <mxCell id="zVnAbdgR_E_ziGiumIPv-155" value="&lt;font style=&quot;vertical-align: inherit;&quot;&gt;&lt;font style=&quot;vertical-align: inherit;&quot;&gt;&lt;font style=&quot;vertical-align: inherit;&quot;&gt;&lt;font style=&quot;vertical-align: inherit;&quot;&gt;&lt;b&gt;CASO DE USO (MÓDULO CALENDARIO)&lt;/b&gt;&lt;/font&gt;&lt;/font&gt;&lt;/font&gt;&lt;/font&gt;" style="whiteSpace=wrap;html=1;aspect=fixed;verticalAlign=top;" vertex="1" parent="1">
          <mxGeometry x="-2230" y="1545" width="445" height="445" as="geometry" />
        </mxCell>
        <mxCell id="zVnAbdgR_E_ziGiumIPv-156" style="edgeStyle=none;rounded=0;orthogonalLoop=1;jettySize=auto;html=1;exitX=1;exitY=0.3333333333333333;exitDx=0;exitDy=0;exitPerimeter=0;entryX=0;entryY=0.5;entryDx=0;entryDy=0;endArrow=none;endFill=0;" edge="1" parent="1" source="zVnAbdgR_E_ziGiumIPv-160" target="zVnAbdgR_E_ziGiumIPv-161">
          <mxGeometry relative="1" as="geometry" />
        </mxCell>
        <mxCell id="zVnAbdgR_E_ziGiumIPv-157" style="edgeStyle=none;rounded=0;orthogonalLoop=1;jettySize=auto;html=1;exitX=1;exitY=0.3333333333333333;exitDx=0;exitDy=0;exitPerimeter=0;entryX=0;entryY=0.5;entryDx=0;entryDy=0;endArrow=none;endFill=0;" edge="1" parent="1" source="zVnAbdgR_E_ziGiumIPv-160" target="zVnAbdgR_E_ziGiumIPv-162">
          <mxGeometry relative="1" as="geometry" />
        </mxCell>
        <mxCell id="zVnAbdgR_E_ziGiumIPv-158" style="edgeStyle=none;rounded=0;orthogonalLoop=1;jettySize=auto;html=1;exitX=1;exitY=0.3333333333333333;exitDx=0;exitDy=0;exitPerimeter=0;entryX=0;entryY=0.5;entryDx=0;entryDy=0;endArrow=none;endFill=0;" edge="1" parent="1" source="zVnAbdgR_E_ziGiumIPv-160" target="zVnAbdgR_E_ziGiumIPv-163">
          <mxGeometry relative="1" as="geometry" />
        </mxCell>
        <mxCell id="zVnAbdgR_E_ziGiumIPv-159" style="edgeStyle=none;rounded=0;orthogonalLoop=1;jettySize=auto;html=1;exitX=1;exitY=0.3333333333333333;exitDx=0;exitDy=0;exitPerimeter=0;entryX=0;entryY=0.5;entryDx=0;entryDy=0;endArrow=none;endFill=0;" edge="1" parent="1" source="zVnAbdgR_E_ziGiumIPv-160" target="zVnAbdgR_E_ziGiumIPv-166">
          <mxGeometry relative="1" as="geometry" />
        </mxCell>
        <mxCell id="zVnAbdgR_E_ziGiumIPv-160" value="&lt;font style=&quot;vertical-align: inherit;&quot;&gt;&lt;font style=&quot;vertical-align: inherit;&quot;&gt;&lt;font style=&quot;vertical-align: inherit;&quot;&gt;&lt;font style=&quot;vertical-align: inherit;&quot;&gt;DOCENTE&lt;br&gt;&lt;/font&gt;&lt;/font&gt;&lt;/font&gt;&lt;/font&gt;" style="shape=umlActor;verticalLabelPosition=bottom;verticalAlign=top;html=1;" vertex="1" parent="1">
          <mxGeometry x="-2350" y="1748" width="30" height="60" as="geometry" />
        </mxCell>
        <mxCell id="zVnAbdgR_E_ziGiumIPv-161" value="&lt;font style=&quot;vertical-align: inherit;&quot;&gt;&lt;font style=&quot;vertical-align: inherit;&quot;&gt;&lt;font style=&quot;vertical-align: inherit;&quot;&gt;&lt;font style=&quot;vertical-align: inherit;&quot;&gt;Seleccione el perfil correspondiente&lt;/font&gt;&lt;/font&gt;&lt;/font&gt;&lt;/font&gt;" style="ellipse;whiteSpace=wrap;html=1;" vertex="1" parent="1">
          <mxGeometry x="-2150" y="1625" width="120" height="70" as="geometry" />
        </mxCell>
        <mxCell id="zVnAbdgR_E_ziGiumIPv-162" value="&lt;font style=&quot;vertical-align: inherit;&quot;&gt;&lt;font style=&quot;vertical-align: inherit;&quot;&gt;&lt;font style=&quot;vertical-align: inherit;&quot;&gt;&lt;font style=&quot;vertical-align: inherit;&quot;&gt;&lt;font style=&quot;vertical-align: inherit;&quot;&gt;&lt;font style=&quot;vertical-align: inherit;&quot;&gt;Ingresar usuario &lt;br&gt;y contraseña&lt;/font&gt;&lt;/font&gt;&lt;/font&gt;&lt;/font&gt;&lt;/font&gt;&lt;/font&gt;" style="ellipse;whiteSpace=wrap;html=1;" vertex="1" parent="1">
          <mxGeometry x="-2150" y="1715" width="120" height="60" as="geometry" />
        </mxCell>
        <mxCell id="zVnAbdgR_E_ziGiumIPv-163" value="&lt;font style=&quot;vertical-align: inherit;&quot;&gt;&lt;font style=&quot;vertical-align: inherit;&quot;&gt;Oprimir&lt;br&gt;el&amp;nbsp;módulo&lt;br&gt;&lt;/font&gt;&lt;/font&gt;calendario" style="ellipse;whiteSpace=wrap;html=1;" vertex="1" parent="1">
          <mxGeometry x="-2147" y="1795" width="115" height="60" as="geometry" />
        </mxCell>
        <mxCell id="zVnAbdgR_E_ziGiumIPv-164" style="edgeStyle=none;rounded=0;orthogonalLoop=1;jettySize=auto;html=1;exitX=1;exitY=0.5;exitDx=0;exitDy=0;entryX=0;entryY=0.5;entryDx=0;entryDy=0;dashed=1;" edge="1" parent="1" source="zVnAbdgR_E_ziGiumIPv-166" target="zVnAbdgR_E_ziGiumIPv-170">
          <mxGeometry relative="1" as="geometry" />
        </mxCell>
        <mxCell id="zVnAbdgR_E_ziGiumIPv-165" value="INCLUDE" style="edgeLabel;html=1;align=center;verticalAlign=middle;resizable=0;points=[];" vertex="1" connectable="0" parent="zVnAbdgR_E_ziGiumIPv-164">
          <mxGeometry x="0.2235" y="1" relative="1" as="geometry">
            <mxPoint x="-27" y="2" as="offset" />
          </mxGeometry>
        </mxCell>
        <mxCell id="zVnAbdgR_E_ziGiumIPv-166" value="Oprimir cerrar&lt;br&gt;sesión" style="ellipse;whiteSpace=wrap;html=1;" vertex="1" parent="1">
          <mxGeometry x="-2137.5" y="1887" width="95" height="50" as="geometry" />
        </mxCell>
        <mxCell id="zVnAbdgR_E_ziGiumIPv-167" style="edgeStyle=none;rounded=0;orthogonalLoop=1;jettySize=auto;html=1;dashed=1;" edge="1" parent="1" source="zVnAbdgR_E_ziGiumIPv-169" target="zVnAbdgR_E_ziGiumIPv-163">
          <mxGeometry relative="1" as="geometry">
            <mxPoint x="-2030" y="1817" as="targetPoint" />
          </mxGeometry>
        </mxCell>
        <mxCell id="zVnAbdgR_E_ziGiumIPv-168" value="EXTEND" style="edgeLabel;html=1;align=center;verticalAlign=middle;resizable=0;points=[];rotation=0;" vertex="1" connectable="0" parent="zVnAbdgR_E_ziGiumIPv-167">
          <mxGeometry x="0.1448" y="1" relative="1" as="geometry">
            <mxPoint x="15" y="-4" as="offset" />
          </mxGeometry>
        </mxCell>
        <mxCell id="zVnAbdgR_E_ziGiumIPv-169" value="&lt;font style=&quot;vertical-align: inherit;&quot;&gt;&lt;font style=&quot;vertical-align: inherit;&quot;&gt;Realizar evento&lt;br&gt;&lt;/font&gt;&lt;/font&gt;" style="ellipse;whiteSpace=wrap;html=1;" vertex="1" parent="1">
          <mxGeometry x="-1932" y="1800" width="100" height="50" as="geometry" />
        </mxCell>
        <mxCell id="zVnAbdgR_E_ziGiumIPv-170" value="&lt;font style=&quot;vertical-align: inherit;&quot;&gt;&lt;font style=&quot;vertical-align: inherit;&quot;&gt;&lt;span style=&quot;font-weight: 400;&quot;&gt;Confirmar cerrar sesión&lt;/span&gt;&lt;br&gt;&lt;/font&gt;&lt;/font&gt;" style="ellipse;whiteSpace=wrap;html=1;fontStyle=1" vertex="1" parent="1">
          <mxGeometry x="-1920" y="1887" width="100" height="50" as="geometry" />
        </mxCell>
        <mxCell id="zVnAbdgR_E_ziGiumIPv-174" value="&lt;font style=&quot;vertical-align: inherit;&quot;&gt;&lt;font style=&quot;vertical-align: inherit;&quot;&gt;&lt;font style=&quot;vertical-align: inherit;&quot;&gt;&lt;font style=&quot;vertical-align: inherit;&quot;&gt;&lt;b&gt;CASO DE USO (MÓDULO CALENDARIO EVENTOS)&lt;/b&gt;&lt;/font&gt;&lt;/font&gt;&lt;/font&gt;&lt;/font&gt;" style="whiteSpace=wrap;html=1;aspect=fixed;verticalAlign=top;" vertex="1" parent="1">
          <mxGeometry x="-1384" y="1555" width="425" height="425" as="geometry" />
        </mxCell>
        <mxCell id="zVnAbdgR_E_ziGiumIPv-175" style="edgeStyle=none;rounded=0;orthogonalLoop=1;jettySize=auto;html=1;exitX=1;exitY=0.3333333333333333;exitDx=0;exitDy=0;exitPerimeter=0;entryX=0;entryY=0.5;entryDx=0;entryDy=0;endArrow=none;endFill=0;" edge="1" parent="1" source="zVnAbdgR_E_ziGiumIPv-179" target="zVnAbdgR_E_ziGiumIPv-180">
          <mxGeometry relative="1" as="geometry" />
        </mxCell>
        <mxCell id="zVnAbdgR_E_ziGiumIPv-176" style="edgeStyle=none;rounded=0;orthogonalLoop=1;jettySize=auto;html=1;exitX=1;exitY=0.3333333333333333;exitDx=0;exitDy=0;exitPerimeter=0;entryX=0;entryY=0.5;entryDx=0;entryDy=0;endArrow=none;endFill=0;" edge="1" parent="1" source="zVnAbdgR_E_ziGiumIPv-179" target="zVnAbdgR_E_ziGiumIPv-181">
          <mxGeometry relative="1" as="geometry" />
        </mxCell>
        <mxCell id="zVnAbdgR_E_ziGiumIPv-177" style="edgeStyle=none;rounded=0;orthogonalLoop=1;jettySize=auto;html=1;exitX=1;exitY=0.3333333333333333;exitDx=0;exitDy=0;exitPerimeter=0;entryX=0;entryY=0.5;entryDx=0;entryDy=0;endArrow=none;endFill=0;" edge="1" parent="1" source="zVnAbdgR_E_ziGiumIPv-179" target="zVnAbdgR_E_ziGiumIPv-182">
          <mxGeometry relative="1" as="geometry" />
        </mxCell>
        <mxCell id="zVnAbdgR_E_ziGiumIPv-178" style="edgeStyle=none;rounded=0;orthogonalLoop=1;jettySize=auto;html=1;exitX=1;exitY=0.3333333333333333;exitDx=0;exitDy=0;exitPerimeter=0;entryX=0;entryY=0.5;entryDx=0;entryDy=0;endArrow=none;endFill=0;" edge="1" parent="1" source="zVnAbdgR_E_ziGiumIPv-179" target="zVnAbdgR_E_ziGiumIPv-185">
          <mxGeometry relative="1" as="geometry" />
        </mxCell>
        <mxCell id="zVnAbdgR_E_ziGiumIPv-179" value="&lt;font style=&quot;vertical-align: inherit;&quot;&gt;&lt;font style=&quot;vertical-align: inherit;&quot;&gt;&lt;font style=&quot;vertical-align: inherit;&quot;&gt;&lt;font style=&quot;vertical-align: inherit;&quot;&gt;ACUDIENTE&lt;br&gt;&lt;/font&gt;&lt;/font&gt;&lt;/font&gt;&lt;/font&gt;" style="shape=umlActor;verticalLabelPosition=bottom;verticalAlign=top;html=1;" vertex="1" parent="1">
          <mxGeometry x="-1504" y="1745" width="30" height="60" as="geometry" />
        </mxCell>
        <mxCell id="zVnAbdgR_E_ziGiumIPv-180" value="&lt;font style=&quot;vertical-align: inherit;&quot;&gt;&lt;font style=&quot;vertical-align: inherit;&quot;&gt;&lt;font style=&quot;vertical-align: inherit;&quot;&gt;&lt;font style=&quot;vertical-align: inherit;&quot;&gt;Seleccione el perfil correspondiente&lt;/font&gt;&lt;/font&gt;&lt;/font&gt;&lt;/font&gt;" style="ellipse;whiteSpace=wrap;html=1;" vertex="1" parent="1">
          <mxGeometry x="-1304" y="1635" width="120" height="70" as="geometry" />
        </mxCell>
        <mxCell id="zVnAbdgR_E_ziGiumIPv-181" value="&lt;font style=&quot;vertical-align: inherit;&quot;&gt;&lt;font style=&quot;vertical-align: inherit;&quot;&gt;&lt;font style=&quot;vertical-align: inherit;&quot;&gt;&lt;font style=&quot;vertical-align: inherit;&quot;&gt;&lt;font style=&quot;vertical-align: inherit;&quot;&gt;&lt;font style=&quot;vertical-align: inherit;&quot;&gt;Ingresar usuario &lt;br&gt;y contraseña&lt;/font&gt;&lt;/font&gt;&lt;/font&gt;&lt;/font&gt;&lt;/font&gt;&lt;/font&gt;" style="ellipse;whiteSpace=wrap;html=1;" vertex="1" parent="1">
          <mxGeometry x="-1304" y="1725" width="120" height="60" as="geometry" />
        </mxCell>
        <mxCell id="zVnAbdgR_E_ziGiumIPv-182" value="&lt;font style=&quot;vertical-align: inherit;&quot;&gt;&lt;font style=&quot;vertical-align: inherit;&quot;&gt;Oprimir&lt;br&gt;el&amp;nbsp;módulo&lt;br&gt;&lt;/font&gt;&lt;/font&gt;calendario" style="ellipse;whiteSpace=wrap;html=1;" vertex="1" parent="1">
          <mxGeometry x="-1301" y="1805" width="115" height="60" as="geometry" />
        </mxCell>
        <mxCell id="zVnAbdgR_E_ziGiumIPv-183" style="edgeStyle=none;rounded=0;orthogonalLoop=1;jettySize=auto;html=1;exitX=1;exitY=0.5;exitDx=0;exitDy=0;entryX=0;entryY=0.5;entryDx=0;entryDy=0;dashed=1;" edge="1" parent="1" source="zVnAbdgR_E_ziGiumIPv-185" target="zVnAbdgR_E_ziGiumIPv-189">
          <mxGeometry relative="1" as="geometry" />
        </mxCell>
        <mxCell id="zVnAbdgR_E_ziGiumIPv-184" value="INCLUDE" style="edgeLabel;html=1;align=center;verticalAlign=middle;resizable=0;points=[];" vertex="1" connectable="0" parent="zVnAbdgR_E_ziGiumIPv-183">
          <mxGeometry x="0.2235" y="1" relative="1" as="geometry">
            <mxPoint x="-27" y="2" as="offset" />
          </mxGeometry>
        </mxCell>
        <mxCell id="zVnAbdgR_E_ziGiumIPv-185" value="Oprimir cerrar&lt;br&gt;sesión" style="ellipse;whiteSpace=wrap;html=1;" vertex="1" parent="1">
          <mxGeometry x="-1291.5" y="1881" width="95" height="50" as="geometry" />
        </mxCell>
        <mxCell id="zVnAbdgR_E_ziGiumIPv-186" style="edgeStyle=none;rounded=0;orthogonalLoop=1;jettySize=auto;html=1;dashed=1;" edge="1" parent="1" source="zVnAbdgR_E_ziGiumIPv-188" target="zVnAbdgR_E_ziGiumIPv-182">
          <mxGeometry relative="1" as="geometry">
            <mxPoint x="-1184" y="1827" as="targetPoint" />
          </mxGeometry>
        </mxCell>
        <mxCell id="zVnAbdgR_E_ziGiumIPv-187" value="EXTEND" style="edgeLabel;html=1;align=center;verticalAlign=middle;resizable=0;points=[];rotation=0;" vertex="1" connectable="0" parent="zVnAbdgR_E_ziGiumIPv-186">
          <mxGeometry x="0.1448" y="1" relative="1" as="geometry">
            <mxPoint x="15" y="-4" as="offset" />
          </mxGeometry>
        </mxCell>
        <mxCell id="zVnAbdgR_E_ziGiumIPv-188" value="&lt;font style=&quot;vertical-align: inherit;&quot;&gt;&lt;font style=&quot;vertical-align: inherit;&quot;&gt;Observar los eventos&lt;br&gt;&lt;/font&gt;&lt;/font&gt;" style="ellipse;whiteSpace=wrap;html=1;" vertex="1" parent="1">
          <mxGeometry x="-1087.5" y="1810" width="100" height="50" as="geometry" />
        </mxCell>
        <mxCell id="zVnAbdgR_E_ziGiumIPv-189" value="&lt;font style=&quot;vertical-align: inherit;&quot;&gt;&lt;font style=&quot;vertical-align: inherit;&quot;&gt;&lt;span style=&quot;font-weight: 400;&quot;&gt;Confirmar cerrar sesión&lt;/span&gt;&lt;br&gt;&lt;/font&gt;&lt;/font&gt;" style="ellipse;whiteSpace=wrap;html=1;fontStyle=1" vertex="1" parent="1">
          <mxGeometry x="-1097.5" y="1881" width="100" height="50" as="geometry" />
        </mxCell>
        <mxCell id="SfuUqs3EBxjO_rYn3UVI-1" value="&lt;font style=&quot;vertical-align: inherit;&quot;&gt;&lt;font style=&quot;vertical-align: inherit;&quot;&gt;&lt;font style=&quot;vertical-align: inherit;&quot;&gt;&lt;font style=&quot;vertical-align: inherit;&quot;&gt;&lt;b&gt;CASO DE USO (MÓDULO GESTIÓN DE USUARIOS)&lt;/b&gt;&lt;/font&gt;&lt;/font&gt;&lt;/font&gt;&lt;/font&gt;" style="whiteSpace=wrap;html=1;aspect=fixed;verticalAlign=top;" vertex="1" parent="1">
          <mxGeometry x="-2996" y="129" width="458" height="458" as="geometry" />
        </mxCell>
        <mxCell id="SfuUqs3EBxjO_rYn3UVI-2" style="edgeStyle=none;rounded=0;orthogonalLoop=1;jettySize=auto;html=1;exitX=1;exitY=0.3333333333333333;exitDx=0;exitDy=0;exitPerimeter=0;entryX=0;entryY=0.5;entryDx=0;entryDy=0;endArrow=none;endFill=0;" edge="1" parent="1" source="SfuUqs3EBxjO_rYn3UVI-6" target="SfuUqs3EBxjO_rYn3UVI-7">
          <mxGeometry relative="1" as="geometry" />
        </mxCell>
        <mxCell id="SfuUqs3EBxjO_rYn3UVI-3" style="edgeStyle=none;rounded=0;orthogonalLoop=1;jettySize=auto;html=1;exitX=1;exitY=0.3333333333333333;exitDx=0;exitDy=0;exitPerimeter=0;entryX=0;entryY=0.5;entryDx=0;entryDy=0;endArrow=none;endFill=0;" edge="1" parent="1" source="SfuUqs3EBxjO_rYn3UVI-6" target="SfuUqs3EBxjO_rYn3UVI-8">
          <mxGeometry relative="1" as="geometry" />
        </mxCell>
        <mxCell id="SfuUqs3EBxjO_rYn3UVI-4" style="edgeStyle=none;rounded=0;orthogonalLoop=1;jettySize=auto;html=1;exitX=1;exitY=0.3333333333333333;exitDx=0;exitDy=0;exitPerimeter=0;entryX=0;entryY=0.5;entryDx=0;entryDy=0;endArrow=none;endFill=0;" edge="1" parent="1" source="SfuUqs3EBxjO_rYn3UVI-6" target="SfuUqs3EBxjO_rYn3UVI-9">
          <mxGeometry relative="1" as="geometry" />
        </mxCell>
        <mxCell id="SfuUqs3EBxjO_rYn3UVI-5" style="edgeStyle=none;rounded=0;orthogonalLoop=1;jettySize=auto;html=1;exitX=1;exitY=0.3333333333333333;exitDx=0;exitDy=0;exitPerimeter=0;entryX=0;entryY=0.5;entryDx=0;entryDy=0;endArrow=none;endFill=0;" edge="1" parent="1" source="SfuUqs3EBxjO_rYn3UVI-6" target="SfuUqs3EBxjO_rYn3UVI-12">
          <mxGeometry relative="1" as="geometry" />
        </mxCell>
        <mxCell id="SfuUqs3EBxjO_rYn3UVI-6" value="&lt;font style=&quot;vertical-align: inherit;&quot;&gt;&lt;font style=&quot;vertical-align: inherit;&quot;&gt;&lt;font style=&quot;vertical-align: inherit;&quot;&gt;&lt;font style=&quot;vertical-align: inherit;&quot;&gt;&lt;font style=&quot;vertical-align: inherit;&quot;&gt;&lt;font style=&quot;vertical-align: inherit;&quot;&gt;&lt;font style=&quot;vertical-align: inherit;&quot;&gt;&lt;font style=&quot;vertical-align: inherit;&quot;&gt;&lt;font style=&quot;vertical-align: inherit;&quot;&gt;&lt;font style=&quot;vertical-align: inherit;&quot;&gt;&lt;font style=&quot;vertical-align: inherit;&quot;&gt;&lt;font style=&quot;vertical-align: inherit;&quot;&gt;DIRECTOR&lt;/font&gt;&lt;/font&gt;&lt;/font&gt;&lt;/font&gt;&lt;/font&gt;&lt;/font&gt;&lt;/font&gt;&lt;/font&gt;&lt;br&gt;&lt;/font&gt;&lt;/font&gt;&lt;/font&gt;&lt;/font&gt;" style="shape=umlActor;verticalLabelPosition=bottom;verticalAlign=top;html=1;" vertex="1" parent="1">
          <mxGeometry x="-3106" y="314" width="30" height="60" as="geometry" />
        </mxCell>
        <mxCell id="SfuUqs3EBxjO_rYn3UVI-7" value="&lt;font style=&quot;vertical-align: inherit;&quot;&gt;&lt;font style=&quot;vertical-align: inherit;&quot;&gt;&lt;font style=&quot;vertical-align: inherit;&quot;&gt;&lt;font style=&quot;vertical-align: inherit;&quot;&gt;Seleccione el perfil correspondiente&lt;/font&gt;&lt;/font&gt;&lt;/font&gt;&lt;/font&gt;" style="ellipse;whiteSpace=wrap;html=1;" vertex="1" parent="1">
          <mxGeometry x="-2920" y="197" width="120" height="70" as="geometry" />
        </mxCell>
        <mxCell id="SfuUqs3EBxjO_rYn3UVI-8" value="&lt;font style=&quot;vertical-align: inherit;&quot;&gt;&lt;font style=&quot;vertical-align: inherit;&quot;&gt;&lt;font style=&quot;vertical-align: inherit;&quot;&gt;&lt;font style=&quot;vertical-align: inherit;&quot;&gt;&lt;font style=&quot;vertical-align: inherit;&quot;&gt;&lt;font style=&quot;vertical-align: inherit;&quot;&gt;Ingresar usuario &lt;br&gt;y contraseña&lt;/font&gt;&lt;/font&gt;&lt;/font&gt;&lt;/font&gt;&lt;/font&gt;&lt;/font&gt;" style="ellipse;whiteSpace=wrap;html=1;" vertex="1" parent="1">
          <mxGeometry x="-2920" y="287" width="120" height="60" as="geometry" />
        </mxCell>
        <mxCell id="SfuUqs3EBxjO_rYn3UVI-9" value="&lt;font style=&quot;vertical-align: inherit;&quot;&gt;&lt;font style=&quot;vertical-align: inherit;&quot;&gt;Oprimir el módulo&lt;br&gt;&lt;/font&gt;&lt;/font&gt;&lt;font style=&quot;vertical-align: inherit;&quot;&gt;&lt;font style=&quot;vertical-align: inherit;&quot;&gt;gestión de usuarios&lt;/font&gt;&lt;/font&gt;" style="ellipse;whiteSpace=wrap;html=1;" vertex="1" parent="1">
          <mxGeometry x="-2925" y="367" width="130" height="60" as="geometry" />
        </mxCell>
        <mxCell id="SfuUqs3EBxjO_rYn3UVI-10" style="edgeStyle=none;rounded=0;orthogonalLoop=1;jettySize=auto;html=1;exitX=1;exitY=0.5;exitDx=0;exitDy=0;entryX=0;entryY=0.5;entryDx=0;entryDy=0;dashed=1;" edge="1" parent="1" source="SfuUqs3EBxjO_rYn3UVI-12" target="SfuUqs3EBxjO_rYn3UVI-22">
          <mxGeometry relative="1" as="geometry" />
        </mxCell>
        <mxCell id="SfuUqs3EBxjO_rYn3UVI-11" value="INCLUDE" style="edgeLabel;html=1;align=center;verticalAlign=middle;resizable=0;points=[];rotation=-1;" connectable="0" vertex="1" parent="SfuUqs3EBxjO_rYn3UVI-10">
          <mxGeometry x="0.2235" y="1" relative="1" as="geometry">
            <mxPoint x="-27" y="1" as="offset" />
          </mxGeometry>
        </mxCell>
        <mxCell id="SfuUqs3EBxjO_rYn3UVI-12" value="Oprimir cerrar&lt;br&gt;sesión" style="ellipse;whiteSpace=wrap;html=1;" vertex="1" parent="1">
          <mxGeometry x="-2907.5" y="473" width="95" height="50" as="geometry" />
        </mxCell>
        <mxCell id="SfuUqs3EBxjO_rYn3UVI-19" style="edgeStyle=none;rounded=0;orthogonalLoop=1;jettySize=auto;html=1;entryX=0.962;entryY=0.667;entryDx=0;entryDy=0;entryPerimeter=0;dashed=1;" edge="1" parent="1" source="fHkMPUWU0p0HW0aizDeC-4" target="SfuUqs3EBxjO_rYn3UVI-9">
          <mxGeometry relative="1" as="geometry">
            <mxPoint x="-2694" y="405" as="sourcePoint" />
          </mxGeometry>
        </mxCell>
        <mxCell id="SfuUqs3EBxjO_rYn3UVI-20" value="EXTEND" style="edgeLabel;html=1;align=center;verticalAlign=middle;resizable=0;points=[];rotation=0;" connectable="0" vertex="1" parent="SfuUqs3EBxjO_rYn3UVI-19">
          <mxGeometry x="0.0914" relative="1" as="geometry">
            <mxPoint x="15" y="5" as="offset" />
          </mxGeometry>
        </mxCell>
        <mxCell id="SfuUqs3EBxjO_rYn3UVI-22" value="&lt;font style=&quot;vertical-align: inherit;&quot;&gt;&lt;font style=&quot;vertical-align: inherit;&quot;&gt;&lt;span style=&quot;font-weight: 400;&quot;&gt;Confirmar cerrar sesión&lt;/span&gt;&lt;br&gt;&lt;/font&gt;&lt;/font&gt;" style="ellipse;whiteSpace=wrap;html=1;fontStyle=1" vertex="1" parent="1">
          <mxGeometry x="-2698" y="474" width="110" height="50" as="geometry" />
        </mxCell>
        <mxCell id="SfuUqs3EBxjO_rYn3UVI-42" value="&lt;font style=&quot;vertical-align: inherit;&quot;&gt;&lt;font style=&quot;vertical-align: inherit;&quot;&gt;&lt;font style=&quot;vertical-align: inherit;&quot;&gt;&lt;font style=&quot;vertical-align: inherit;&quot;&gt;&lt;b&gt;CASO DE USO (MÓDULO TRÁMITES)&lt;/b&gt;&lt;/font&gt;&lt;/font&gt;&lt;/font&gt;&lt;/font&gt;" style="whiteSpace=wrap;html=1;aspect=fixed;verticalAlign=top;" vertex="1" parent="1">
          <mxGeometry x="-3720" y="870" width="460" height="460" as="geometry" />
        </mxCell>
        <mxCell id="SfuUqs3EBxjO_rYn3UVI-43" style="edgeStyle=none;rounded=0;orthogonalLoop=1;jettySize=auto;html=1;exitX=1;exitY=0.3333333333333333;exitDx=0;exitDy=0;exitPerimeter=0;entryX=0;entryY=0.5;entryDx=0;entryDy=0;endArrow=none;endFill=0;" edge="1" parent="1" source="SfuUqs3EBxjO_rYn3UVI-47" target="SfuUqs3EBxjO_rYn3UVI-48">
          <mxGeometry relative="1" as="geometry" />
        </mxCell>
        <mxCell id="SfuUqs3EBxjO_rYn3UVI-44" style="edgeStyle=none;rounded=0;orthogonalLoop=1;jettySize=auto;html=1;exitX=1;exitY=0.3333333333333333;exitDx=0;exitDy=0;exitPerimeter=0;entryX=0;entryY=0.5;entryDx=0;entryDy=0;endArrow=none;endFill=0;" edge="1" parent="1" source="SfuUqs3EBxjO_rYn3UVI-47" target="SfuUqs3EBxjO_rYn3UVI-49">
          <mxGeometry relative="1" as="geometry" />
        </mxCell>
        <mxCell id="SfuUqs3EBxjO_rYn3UVI-45" style="edgeStyle=none;rounded=0;orthogonalLoop=1;jettySize=auto;html=1;exitX=1;exitY=0.3333333333333333;exitDx=0;exitDy=0;exitPerimeter=0;entryX=0;entryY=0.5;entryDx=0;entryDy=0;endArrow=none;endFill=0;" edge="1" parent="1" source="SfuUqs3EBxjO_rYn3UVI-47" target="SfuUqs3EBxjO_rYn3UVI-50">
          <mxGeometry relative="1" as="geometry" />
        </mxCell>
        <mxCell id="SfuUqs3EBxjO_rYn3UVI-46" style="edgeStyle=none;rounded=0;orthogonalLoop=1;jettySize=auto;html=1;exitX=1;exitY=0.3333333333333333;exitDx=0;exitDy=0;exitPerimeter=0;entryX=0;entryY=0.5;entryDx=0;entryDy=0;endArrow=none;endFill=0;" edge="1" parent="1" source="SfuUqs3EBxjO_rYn3UVI-47" target="SfuUqs3EBxjO_rYn3UVI-53">
          <mxGeometry relative="1" as="geometry" />
        </mxCell>
        <mxCell id="SfuUqs3EBxjO_rYn3UVI-47" value="&lt;font style=&quot;vertical-align: inherit;&quot;&gt;&lt;font style=&quot;vertical-align: inherit;&quot;&gt;&lt;font style=&quot;vertical-align: inherit;&quot;&gt;&lt;font style=&quot;vertical-align: inherit;&quot;&gt;&lt;font style=&quot;vertical-align: inherit;&quot;&gt;&lt;font style=&quot;vertical-align: inherit;&quot;&gt;&lt;font style=&quot;vertical-align: inherit;&quot;&gt;&lt;font style=&quot;vertical-align: inherit;&quot;&gt;&lt;font style=&quot;vertical-align: inherit;&quot;&gt;&lt;font style=&quot;vertical-align: inherit;&quot;&gt;&lt;font style=&quot;vertical-align: inherit;&quot;&gt;&lt;font style=&quot;vertical-align: inherit;&quot;&gt;DIRECTOR&lt;/font&gt;&lt;/font&gt;&lt;/font&gt;&lt;/font&gt;&lt;/font&gt;&lt;/font&gt;&lt;/font&gt;&lt;/font&gt;&lt;br&gt;&lt;/font&gt;&lt;/font&gt;&lt;/font&gt;&lt;/font&gt;" style="shape=umlActor;verticalLabelPosition=bottom;verticalAlign=top;html=1;" vertex="1" parent="1">
          <mxGeometry x="-3856" y="1090" width="30" height="60" as="geometry" />
        </mxCell>
        <mxCell id="SfuUqs3EBxjO_rYn3UVI-48" value="&lt;font style=&quot;vertical-align: inherit;&quot;&gt;&lt;font style=&quot;vertical-align: inherit;&quot;&gt;&lt;font style=&quot;vertical-align: inherit;&quot;&gt;&lt;font style=&quot;vertical-align: inherit;&quot;&gt;Seleccione el perfil correspondiente&lt;/font&gt;&lt;/font&gt;&lt;/font&gt;&lt;/font&gt;" style="ellipse;whiteSpace=wrap;html=1;" vertex="1" parent="1">
          <mxGeometry x="-3656" y="950" width="120" height="70" as="geometry" />
        </mxCell>
        <mxCell id="SfuUqs3EBxjO_rYn3UVI-49" value="&lt;font style=&quot;vertical-align: inherit;&quot;&gt;&lt;font style=&quot;vertical-align: inherit;&quot;&gt;&lt;font style=&quot;vertical-align: inherit;&quot;&gt;&lt;font style=&quot;vertical-align: inherit;&quot;&gt;&lt;font style=&quot;vertical-align: inherit;&quot;&gt;&lt;font style=&quot;vertical-align: inherit;&quot;&gt;Ingresar usuario &lt;br&gt;y contraseña&lt;/font&gt;&lt;/font&gt;&lt;/font&gt;&lt;/font&gt;&lt;/font&gt;&lt;/font&gt;" style="ellipse;whiteSpace=wrap;html=1;" vertex="1" parent="1">
          <mxGeometry x="-3656" y="1040" width="120" height="60" as="geometry" />
        </mxCell>
        <mxCell id="SfuUqs3EBxjO_rYn3UVI-50" value="&lt;font style=&quot;vertical-align: inherit;&quot;&gt;&lt;font style=&quot;vertical-align: inherit;&quot;&gt;Oprimir el&lt;br&gt;módulo&amp;nbsp;&lt;/font&gt;&lt;/font&gt;trámites" style="ellipse;whiteSpace=wrap;html=1;" vertex="1" parent="1">
          <mxGeometry x="-3653" y="1120" width="115" height="60" as="geometry" />
        </mxCell>
        <mxCell id="SfuUqs3EBxjO_rYn3UVI-51" style="edgeStyle=none;rounded=0;orthogonalLoop=1;jettySize=auto;html=1;exitX=1;exitY=0.5;exitDx=0;exitDy=0;entryX=0;entryY=0.5;entryDx=0;entryDy=0;dashed=1;" edge="1" parent="1" source="SfuUqs3EBxjO_rYn3UVI-53" target="SfuUqs3EBxjO_rYn3UVI-57">
          <mxGeometry relative="1" as="geometry" />
        </mxCell>
        <mxCell id="SfuUqs3EBxjO_rYn3UVI-52" value="INCLUDE" style="edgeLabel;html=1;align=center;verticalAlign=middle;resizable=0;points=[];" connectable="0" vertex="1" parent="SfuUqs3EBxjO_rYn3UVI-51">
          <mxGeometry x="0.2235" y="1" relative="1" as="geometry">
            <mxPoint x="-27" y="2" as="offset" />
          </mxGeometry>
        </mxCell>
        <mxCell id="SfuUqs3EBxjO_rYn3UVI-53" value="Oprimir cerrar&lt;br&gt;sesión" style="ellipse;whiteSpace=wrap;html=1;" vertex="1" parent="1">
          <mxGeometry x="-3643.5" y="1214" width="95" height="50" as="geometry" />
        </mxCell>
        <mxCell id="SfuUqs3EBxjO_rYn3UVI-57" value="&lt;font style=&quot;vertical-align: inherit;&quot;&gt;&lt;font style=&quot;vertical-align: inherit;&quot;&gt;&lt;span style=&quot;font-weight: 400;&quot;&gt;Confirmar cerrar sesión&lt;/span&gt;&lt;br&gt;&lt;/font&gt;&lt;/font&gt;" style="ellipse;whiteSpace=wrap;html=1;fontStyle=1" vertex="1" parent="1">
          <mxGeometry x="-3423" y="1220" width="100" height="50" as="geometry" />
        </mxCell>
        <mxCell id="SfuUqs3EBxjO_rYn3UVI-58" style="edgeStyle=none;rounded=0;orthogonalLoop=1;jettySize=auto;html=1;exitX=0;exitY=0.5;exitDx=0;exitDy=0;entryX=1;entryY=0;entryDx=0;entryDy=0;endArrow=classic;endFill=1;dashed=1;startArrow=none;startFill=0;" edge="1" parent="1" source="SfuUqs3EBxjO_rYn3UVI-60" target="SfuUqs3EBxjO_rYn3UVI-50">
          <mxGeometry relative="1" as="geometry">
            <mxPoint x="-3359.999999999998" y="1151" as="sourcePoint" />
            <mxPoint x="-3540.99" y="1152" as="targetPoint" />
          </mxGeometry>
        </mxCell>
        <mxCell id="SfuUqs3EBxjO_rYn3UVI-59" value="EXTEND" style="edgeLabel;html=1;align=center;verticalAlign=middle;resizable=0;points=[];rotation=0;" connectable="0" vertex="1" parent="SfuUqs3EBxjO_rYn3UVI-58">
          <mxGeometry x="0.1612" y="1" relative="1" as="geometry">
            <mxPoint x="12" y="-10" as="offset" />
          </mxGeometry>
        </mxCell>
        <mxCell id="SfuUqs3EBxjO_rYn3UVI-60" value="Observar &lt;br&gt;registros&lt;br&gt;de cupos" style="ellipse;whiteSpace=wrap;html=1;" vertex="1" parent="1">
          <mxGeometry x="-3432" y="1038" width="100" height="72" as="geometry" />
        </mxCell>
        <mxCell id="SfuUqs3EBxjO_rYn3UVI-95" value="&lt;font style=&quot;vertical-align: inherit;&quot;&gt;&lt;font style=&quot;vertical-align: inherit;&quot;&gt;&lt;font style=&quot;vertical-align: inherit;&quot;&gt;&lt;font style=&quot;vertical-align: inherit;&quot;&gt;&lt;b&gt;CASO DE USO (MÓDULO CALENDARIO)&lt;/b&gt;&lt;/font&gt;&lt;/font&gt;&lt;/font&gt;&lt;/font&gt;" style="whiteSpace=wrap;html=1;aspect=fixed;verticalAlign=top;" vertex="1" parent="1">
          <mxGeometry x="-3720" y="1555" width="425" height="425" as="geometry" />
        </mxCell>
        <mxCell id="SfuUqs3EBxjO_rYn3UVI-96" style="edgeStyle=none;rounded=0;orthogonalLoop=1;jettySize=auto;html=1;exitX=1;exitY=0.3333333333333333;exitDx=0;exitDy=0;exitPerimeter=0;entryX=0;entryY=0.5;entryDx=0;entryDy=0;endArrow=none;endFill=0;" edge="1" parent="1" source="SfuUqs3EBxjO_rYn3UVI-100" target="SfuUqs3EBxjO_rYn3UVI-101">
          <mxGeometry relative="1" as="geometry" />
        </mxCell>
        <mxCell id="SfuUqs3EBxjO_rYn3UVI-97" style="edgeStyle=none;rounded=0;orthogonalLoop=1;jettySize=auto;html=1;exitX=1;exitY=0.3333333333333333;exitDx=0;exitDy=0;exitPerimeter=0;entryX=0;entryY=0.5;entryDx=0;entryDy=0;endArrow=none;endFill=0;" edge="1" parent="1" source="SfuUqs3EBxjO_rYn3UVI-100" target="SfuUqs3EBxjO_rYn3UVI-102">
          <mxGeometry relative="1" as="geometry" />
        </mxCell>
        <mxCell id="SfuUqs3EBxjO_rYn3UVI-98" style="edgeStyle=none;rounded=0;orthogonalLoop=1;jettySize=auto;html=1;exitX=1;exitY=0.3333333333333333;exitDx=0;exitDy=0;exitPerimeter=0;entryX=0;entryY=0.5;entryDx=0;entryDy=0;endArrow=none;endFill=0;" edge="1" parent="1" source="SfuUqs3EBxjO_rYn3UVI-100" target="SfuUqs3EBxjO_rYn3UVI-103">
          <mxGeometry relative="1" as="geometry" />
        </mxCell>
        <mxCell id="SfuUqs3EBxjO_rYn3UVI-99" style="edgeStyle=none;rounded=0;orthogonalLoop=1;jettySize=auto;html=1;exitX=1;exitY=0.3333333333333333;exitDx=0;exitDy=0;exitPerimeter=0;entryX=0;entryY=0.5;entryDx=0;entryDy=0;endArrow=none;endFill=0;" edge="1" parent="1" source="SfuUqs3EBxjO_rYn3UVI-100" target="SfuUqs3EBxjO_rYn3UVI-106">
          <mxGeometry relative="1" as="geometry" />
        </mxCell>
        <mxCell id="SfuUqs3EBxjO_rYn3UVI-100" value="&lt;font style=&quot;vertical-align: inherit;&quot;&gt;&lt;font style=&quot;vertical-align: inherit;&quot;&gt;&lt;font style=&quot;vertical-align: inherit;&quot;&gt;&lt;font style=&quot;vertical-align: inherit;&quot;&gt;&lt;font style=&quot;vertical-align: inherit;&quot;&gt;&lt;font style=&quot;vertical-align: inherit;&quot;&gt;&lt;font style=&quot;vertical-align: inherit;&quot;&gt;&lt;font style=&quot;vertical-align: inherit;&quot;&gt;&lt;font style=&quot;vertical-align: inherit;&quot;&gt;&lt;font style=&quot;vertical-align: inherit;&quot;&gt;&lt;font style=&quot;vertical-align: inherit;&quot;&gt;&lt;font style=&quot;vertical-align: inherit;&quot;&gt;DIRECTOR&lt;/font&gt;&lt;/font&gt;&lt;/font&gt;&lt;/font&gt;&lt;/font&gt;&lt;/font&gt;&lt;/font&gt;&lt;/font&gt;&lt;br&gt;&lt;/font&gt;&lt;/font&gt;&lt;/font&gt;&lt;/font&gt;" style="shape=umlActor;verticalLabelPosition=bottom;verticalAlign=top;html=1;" vertex="1" parent="1">
          <mxGeometry x="-3840" y="1733" width="30" height="60" as="geometry" />
        </mxCell>
        <mxCell id="SfuUqs3EBxjO_rYn3UVI-101" value="&lt;font style=&quot;vertical-align: inherit;&quot;&gt;&lt;font style=&quot;vertical-align: inherit;&quot;&gt;&lt;font style=&quot;vertical-align: inherit;&quot;&gt;&lt;font style=&quot;vertical-align: inherit;&quot;&gt;Seleccione el perfil correspondiente&lt;/font&gt;&lt;/font&gt;&lt;/font&gt;&lt;/font&gt;" style="ellipse;whiteSpace=wrap;html=1;" vertex="1" parent="1">
          <mxGeometry x="-3640" y="1635" width="120" height="70" as="geometry" />
        </mxCell>
        <mxCell id="SfuUqs3EBxjO_rYn3UVI-102" value="&lt;font style=&quot;vertical-align: inherit;&quot;&gt;&lt;font style=&quot;vertical-align: inherit;&quot;&gt;&lt;font style=&quot;vertical-align: inherit;&quot;&gt;&lt;font style=&quot;vertical-align: inherit;&quot;&gt;&lt;font style=&quot;vertical-align: inherit;&quot;&gt;&lt;font style=&quot;vertical-align: inherit;&quot;&gt;Ingresar usuario &lt;br&gt;y contraseña&lt;/font&gt;&lt;/font&gt;&lt;/font&gt;&lt;/font&gt;&lt;/font&gt;&lt;/font&gt;" style="ellipse;whiteSpace=wrap;html=1;" vertex="1" parent="1">
          <mxGeometry x="-3640" y="1725" width="120" height="60" as="geometry" />
        </mxCell>
        <mxCell id="SfuUqs3EBxjO_rYn3UVI-103" value="&lt;font style=&quot;vertical-align: inherit;&quot;&gt;&lt;font style=&quot;vertical-align: inherit;&quot;&gt;Oprimir&lt;br&gt;el&amp;nbsp;módulo&lt;br&gt;&lt;/font&gt;&lt;/font&gt;calendario" style="ellipse;whiteSpace=wrap;html=1;" vertex="1" parent="1">
          <mxGeometry x="-3637" y="1805" width="115" height="60" as="geometry" />
        </mxCell>
        <mxCell id="SfuUqs3EBxjO_rYn3UVI-104" style="edgeStyle=none;rounded=0;orthogonalLoop=1;jettySize=auto;html=1;exitX=1;exitY=0.5;exitDx=0;exitDy=0;entryX=0;entryY=0.5;entryDx=0;entryDy=0;dashed=1;" edge="1" parent="1" source="SfuUqs3EBxjO_rYn3UVI-106" target="SfuUqs3EBxjO_rYn3UVI-110">
          <mxGeometry relative="1" as="geometry" />
        </mxCell>
        <mxCell id="SfuUqs3EBxjO_rYn3UVI-105" value="INCLUDE" style="edgeLabel;html=1;align=center;verticalAlign=middle;resizable=0;points=[];" connectable="0" vertex="1" parent="SfuUqs3EBxjO_rYn3UVI-104">
          <mxGeometry x="0.2235" y="1" relative="1" as="geometry">
            <mxPoint x="-27" y="2" as="offset" />
          </mxGeometry>
        </mxCell>
        <mxCell id="SfuUqs3EBxjO_rYn3UVI-106" value="Oprimir cerrar&lt;br&gt;sesión" style="ellipse;whiteSpace=wrap;html=1;" vertex="1" parent="1">
          <mxGeometry x="-3627.5" y="1889" width="95" height="50" as="geometry" />
        </mxCell>
        <mxCell id="SfuUqs3EBxjO_rYn3UVI-107" style="edgeStyle=none;rounded=0;orthogonalLoop=1;jettySize=auto;html=1;dashed=1;" edge="1" parent="1" source="SfuUqs3EBxjO_rYn3UVI-109" target="SfuUqs3EBxjO_rYn3UVI-103">
          <mxGeometry relative="1" as="geometry">
            <mxPoint x="-3520" y="1827" as="targetPoint" />
          </mxGeometry>
        </mxCell>
        <mxCell id="SfuUqs3EBxjO_rYn3UVI-108" value="EXTEND" style="edgeLabel;html=1;align=center;verticalAlign=middle;resizable=0;points=[];rotation=0;" connectable="0" vertex="1" parent="SfuUqs3EBxjO_rYn3UVI-107">
          <mxGeometry x="0.1448" y="1" relative="1" as="geometry">
            <mxPoint x="15" y="-4" as="offset" />
          </mxGeometry>
        </mxCell>
        <mxCell id="SfuUqs3EBxjO_rYn3UVI-109" value="&lt;font style=&quot;vertical-align: inherit;&quot;&gt;&lt;font style=&quot;vertical-align: inherit;&quot;&gt;Realizar evento&lt;br&gt;&lt;/font&gt;&lt;/font&gt;" style="ellipse;whiteSpace=wrap;html=1;" vertex="1" parent="1">
          <mxGeometry x="-3428" y="1806.5" width="110" height="57" as="geometry" />
        </mxCell>
        <mxCell id="SfuUqs3EBxjO_rYn3UVI-110" value="&lt;font style=&quot;vertical-align: inherit;&quot;&gt;&lt;font style=&quot;vertical-align: inherit;&quot;&gt;&lt;span style=&quot;font-weight: 400;&quot;&gt;Confirmar cerrar sesión&lt;/span&gt;&lt;br&gt;&lt;/font&gt;&lt;/font&gt;" style="ellipse;whiteSpace=wrap;html=1;fontStyle=1" vertex="1" parent="1">
          <mxGeometry x="-3431" y="1889" width="100" height="50" as="geometry" />
        </mxCell>
        <mxCell id="y3YfDfOMxSSAQq5WPoW1-2" style="edgeStyle=orthogonalEdgeStyle;rounded=0;orthogonalLoop=1;jettySize=auto;html=1;exitX=0;exitY=0.5;exitDx=0;exitDy=0;entryX=1;entryY=1;entryDx=0;entryDy=0;dashed=1;" edge="1" parent="1" source="y3YfDfOMxSSAQq5WPoW1-1" target="SfuUqs3EBxjO_rYn3UVI-50">
          <mxGeometry relative="1" as="geometry" />
        </mxCell>
        <mxCell id="y3YfDfOMxSSAQq5WPoW1-3" value="EXTEND" style="edgeLabel;html=1;align=center;verticalAlign=middle;resizable=0;points=[];" connectable="0" vertex="1" parent="y3YfDfOMxSSAQq5WPoW1-2">
          <mxGeometry x="-0.1589" y="3" relative="1" as="geometry">
            <mxPoint x="8" y="-1" as="offset" />
          </mxGeometry>
        </mxCell>
        <mxCell id="y3YfDfOMxSSAQq5WPoW1-1" value="Realizar citación" style="ellipse;whiteSpace=wrap;html=1;" vertex="1" parent="1">
          <mxGeometry x="-3432" y="1135" width="110" height="72" as="geometry" />
        </mxCell>
        <mxCell id="y3YfDfOMxSSAQq5WPoW1-5" style="rounded=0;orthogonalLoop=1;jettySize=auto;html=1;exitX=0;exitY=0.5;exitDx=0;exitDy=0;entryX=1;entryY=1;entryDx=0;entryDy=0;dashed=1;" edge="1" parent="1" source="y3YfDfOMxSSAQq5WPoW1-4" target="zVnAbdgR_E_ziGiumIPv-41">
          <mxGeometry relative="1" as="geometry" />
        </mxCell>
        <mxCell id="y3YfDfOMxSSAQq5WPoW1-6" value="EXTEND" style="edgeLabel;html=1;align=center;verticalAlign=middle;resizable=0;points=[];" connectable="0" vertex="1" parent="y3YfDfOMxSSAQq5WPoW1-5">
          <mxGeometry x="-0.1525" y="1" relative="1" as="geometry">
            <mxPoint x="-1" as="offset" />
          </mxGeometry>
        </mxCell>
        <mxCell id="y3YfDfOMxSSAQq5WPoW1-4" value="Realizar citacion" style="ellipse;whiteSpace=wrap;html=1;" vertex="1" parent="1">
          <mxGeometry x="-2736.5" y="1130" width="110" height="72" as="geometry" />
        </mxCell>
        <mxCell id="y3YfDfOMxSSAQq5WPoW1-8" style="rounded=0;orthogonalLoop=1;jettySize=auto;html=1;exitX=0;exitY=0.5;exitDx=0;exitDy=0;entryX=1;entryY=1;entryDx=0;entryDy=0;dashed=1;" edge="1" parent="1" source="y3YfDfOMxSSAQq5WPoW1-7" target="zVnAbdgR_E_ziGiumIPv-125">
          <mxGeometry relative="1" as="geometry" />
        </mxCell>
        <mxCell id="y3YfDfOMxSSAQq5WPoW1-9" value="EXTEND" style="edgeLabel;html=1;align=center;verticalAlign=middle;resizable=0;points=[];" connectable="0" vertex="1" parent="y3YfDfOMxSSAQq5WPoW1-8">
          <mxGeometry x="-0.186" relative="1" as="geometry">
            <mxPoint as="offset" />
          </mxGeometry>
        </mxCell>
        <mxCell id="y3YfDfOMxSSAQq5WPoW1-7" value="Realizar citacion" style="ellipse;whiteSpace=wrap;html=1;" vertex="1" parent="1">
          <mxGeometry x="-1991.5" y="1137" width="110" height="43" as="geometry" />
        </mxCell>
        <mxCell id="y3YfDfOMxSSAQq5WPoW1-10" value="&lt;font style=&quot;vertical-align: inherit;&quot;&gt;&lt;font style=&quot;vertical-align: inherit;&quot;&gt;&lt;font style=&quot;vertical-align: inherit;&quot;&gt;&lt;font style=&quot;vertical-align: inherit;&quot;&gt;&lt;b&gt;CASO DE USO (MÓDULO TRÁMITES)&lt;/b&gt;&lt;/font&gt;&lt;/font&gt;&lt;/font&gt;&lt;/font&gt;" style="whiteSpace=wrap;html=1;aspect=fixed;verticalAlign=top;" vertex="1" parent="1">
          <mxGeometry x="-1504" y="880" width="440" height="440" as="geometry" />
        </mxCell>
        <mxCell id="y3YfDfOMxSSAQq5WPoW1-11" style="edgeStyle=none;rounded=0;orthogonalLoop=1;jettySize=auto;html=1;exitX=1;exitY=0.3333333333333333;exitDx=0;exitDy=0;exitPerimeter=0;entryX=0;entryY=0.5;entryDx=0;entryDy=0;endArrow=none;endFill=0;" edge="1" parent="1" source="y3YfDfOMxSSAQq5WPoW1-15" target="y3YfDfOMxSSAQq5WPoW1-16">
          <mxGeometry relative="1" as="geometry" />
        </mxCell>
        <mxCell id="y3YfDfOMxSSAQq5WPoW1-12" style="edgeStyle=none;rounded=0;orthogonalLoop=1;jettySize=auto;html=1;exitX=1;exitY=0.3333333333333333;exitDx=0;exitDy=0;exitPerimeter=0;entryX=0;entryY=0.5;entryDx=0;entryDy=0;endArrow=none;endFill=0;" edge="1" parent="1" source="y3YfDfOMxSSAQq5WPoW1-15" target="y3YfDfOMxSSAQq5WPoW1-17">
          <mxGeometry relative="1" as="geometry" />
        </mxCell>
        <mxCell id="y3YfDfOMxSSAQq5WPoW1-13" style="edgeStyle=none;rounded=0;orthogonalLoop=1;jettySize=auto;html=1;exitX=1;exitY=0.3333333333333333;exitDx=0;exitDy=0;exitPerimeter=0;entryX=0;entryY=0.5;entryDx=0;entryDy=0;endArrow=none;endFill=0;" edge="1" parent="1" source="y3YfDfOMxSSAQq5WPoW1-15" target="y3YfDfOMxSSAQq5WPoW1-18">
          <mxGeometry relative="1" as="geometry" />
        </mxCell>
        <mxCell id="y3YfDfOMxSSAQq5WPoW1-14" style="edgeStyle=none;rounded=0;orthogonalLoop=1;jettySize=auto;html=1;exitX=1;exitY=0.3333333333333333;exitDx=0;exitDy=0;exitPerimeter=0;entryX=0;entryY=0.5;entryDx=0;entryDy=0;endArrow=none;endFill=0;" edge="1" parent="1" source="y3YfDfOMxSSAQq5WPoW1-15" target="y3YfDfOMxSSAQq5WPoW1-21">
          <mxGeometry relative="1" as="geometry" />
        </mxCell>
        <mxCell id="y3YfDfOMxSSAQq5WPoW1-15" value="&lt;font style=&quot;vertical-align: inherit;&quot;&gt;&lt;font style=&quot;vertical-align: inherit;&quot;&gt;&lt;font style=&quot;vertical-align: inherit;&quot;&gt;&lt;font style=&quot;vertical-align: inherit;&quot;&gt;DOCENTE&lt;br&gt;&lt;/font&gt;&lt;/font&gt;&lt;/font&gt;&lt;/font&gt;" style="shape=umlActor;verticalLabelPosition=bottom;verticalAlign=top;html=1;" vertex="1" parent="1">
          <mxGeometry x="-1630" y="1045" width="30" height="60" as="geometry" />
        </mxCell>
        <mxCell id="y3YfDfOMxSSAQq5WPoW1-16" value="&lt;font style=&quot;vertical-align: inherit;&quot;&gt;&lt;font style=&quot;vertical-align: inherit;&quot;&gt;&lt;font style=&quot;vertical-align: inherit;&quot;&gt;&lt;font style=&quot;vertical-align: inherit;&quot;&gt;Seleccione el perfil correspondiente&lt;/font&gt;&lt;/font&gt;&lt;/font&gt;&lt;/font&gt;" style="ellipse;whiteSpace=wrap;html=1;" vertex="1" parent="1">
          <mxGeometry x="-1430" y="940" width="120" height="70" as="geometry" />
        </mxCell>
        <mxCell id="y3YfDfOMxSSAQq5WPoW1-17" value="&lt;font style=&quot;vertical-align: inherit;&quot;&gt;&lt;font style=&quot;vertical-align: inherit;&quot;&gt;&lt;font style=&quot;vertical-align: inherit;&quot;&gt;&lt;font style=&quot;vertical-align: inherit;&quot;&gt;&lt;font style=&quot;vertical-align: inherit;&quot;&gt;&lt;font style=&quot;vertical-align: inherit;&quot;&gt;Ingresar usuario &lt;br&gt;y contraseña&lt;/font&gt;&lt;/font&gt;&lt;/font&gt;&lt;/font&gt;&lt;/font&gt;&lt;/font&gt;" style="ellipse;whiteSpace=wrap;html=1;" vertex="1" parent="1">
          <mxGeometry x="-1430" y="1030" width="120" height="60" as="geometry" />
        </mxCell>
        <mxCell id="y3YfDfOMxSSAQq5WPoW1-18" value="&lt;font style=&quot;vertical-align: inherit;&quot;&gt;&lt;font style=&quot;vertical-align: inherit;&quot;&gt;Oprimir el&lt;br&gt;módulo&amp;nbsp;&lt;/font&gt;&lt;/font&gt;trámites" style="ellipse;whiteSpace=wrap;html=1;" vertex="1" parent="1">
          <mxGeometry x="-1427" y="1110" width="115" height="60" as="geometry" />
        </mxCell>
        <mxCell id="y3YfDfOMxSSAQq5WPoW1-19" style="edgeStyle=none;rounded=0;orthogonalLoop=1;jettySize=auto;html=1;exitX=1;exitY=0.5;exitDx=0;exitDy=0;entryX=0;entryY=0.5;entryDx=0;entryDy=0;dashed=1;" edge="1" parent="1" source="y3YfDfOMxSSAQq5WPoW1-21" target="y3YfDfOMxSSAQq5WPoW1-22">
          <mxGeometry relative="1" as="geometry" />
        </mxCell>
        <mxCell id="y3YfDfOMxSSAQq5WPoW1-20" value="INCLUDE" style="edgeLabel;html=1;align=center;verticalAlign=middle;resizable=0;points=[];" connectable="0" vertex="1" parent="y3YfDfOMxSSAQq5WPoW1-19">
          <mxGeometry x="0.2235" y="1" relative="1" as="geometry">
            <mxPoint x="-27" y="2" as="offset" />
          </mxGeometry>
        </mxCell>
        <mxCell id="y3YfDfOMxSSAQq5WPoW1-21" value="Oprimir cerrar&lt;br&gt;sesión" style="ellipse;whiteSpace=wrap;html=1;" vertex="1" parent="1">
          <mxGeometry x="-1417.5" y="1185" width="95" height="50" as="geometry" />
        </mxCell>
        <mxCell id="y3YfDfOMxSSAQq5WPoW1-22" value="&lt;font style=&quot;vertical-align: inherit;&quot;&gt;&lt;font style=&quot;vertical-align: inherit;&quot;&gt;&lt;span style=&quot;font-weight: 400;&quot;&gt;Confirmar cerrar sesión&lt;/span&gt;&lt;br&gt;&lt;/font&gt;&lt;/font&gt;" style="ellipse;whiteSpace=wrap;html=1;fontStyle=1" vertex="1" parent="1">
          <mxGeometry x="-1201" y="1188" width="100" height="50" as="geometry" />
        </mxCell>
        <mxCell id="y3YfDfOMxSSAQq5WPoW1-26" style="rounded=0;orthogonalLoop=1;jettySize=auto;html=1;exitX=0;exitY=0.5;exitDx=0;exitDy=0;entryX=1;entryY=0.5;entryDx=0;entryDy=0;dashed=1;" edge="1" parent="1" source="y3YfDfOMxSSAQq5WPoW1-28" target="y3YfDfOMxSSAQq5WPoW1-18">
          <mxGeometry relative="1" as="geometry" />
        </mxCell>
        <mxCell id="y3YfDfOMxSSAQq5WPoW1-27" value="EXTEND" style="edgeLabel;html=1;align=center;verticalAlign=middle;resizable=0;points=[];" connectable="0" vertex="1" parent="y3YfDfOMxSSAQq5WPoW1-26">
          <mxGeometry x="-0.186" relative="1" as="geometry">
            <mxPoint as="offset" />
          </mxGeometry>
        </mxCell>
        <mxCell id="y3YfDfOMxSSAQq5WPoW1-28" value="Realizar citación" style="ellipse;whiteSpace=wrap;html=1;" vertex="1" parent="1">
          <mxGeometry x="-1207.5" y="1120" width="110" height="46" as="geometry" />
        </mxCell>
        <mxCell id="NNJLGxEd74ArwUN1WmqN-1" value="&lt;font style=&quot;vertical-align: inherit;&quot;&gt;&lt;font style=&quot;vertical-align: inherit;&quot;&gt;&lt;font style=&quot;vertical-align: inherit;&quot;&gt;&lt;font style=&quot;vertical-align: inherit;&quot;&gt;&lt;b&gt;CASO DE USO (MÓDULO GESTIÓN DE USUARIOS)&lt;/b&gt;&lt;/font&gt;&lt;/font&gt;&lt;/font&gt;&lt;/font&gt;" style="whiteSpace=wrap;html=1;aspect=fixed;verticalAlign=top;" vertex="1" parent="1">
          <mxGeometry x="-3627.5" y="130" width="465" height="465" as="geometry" />
        </mxCell>
        <mxCell id="NNJLGxEd74ArwUN1WmqN-2" style="edgeStyle=none;rounded=0;orthogonalLoop=1;jettySize=auto;html=1;exitX=1;exitY=0.3333333333333333;exitDx=0;exitDy=0;exitPerimeter=0;entryX=0;entryY=0.5;entryDx=0;entryDy=0;endArrow=none;endFill=0;" edge="1" parent="1" source="NNJLGxEd74ArwUN1WmqN-6" target="NNJLGxEd74ArwUN1WmqN-7">
          <mxGeometry relative="1" as="geometry" />
        </mxCell>
        <mxCell id="NNJLGxEd74ArwUN1WmqN-3" style="edgeStyle=none;rounded=0;orthogonalLoop=1;jettySize=auto;html=1;exitX=1;exitY=0.3333333333333333;exitDx=0;exitDy=0;exitPerimeter=0;entryX=0;entryY=0.5;entryDx=0;entryDy=0;endArrow=none;endFill=0;" edge="1" parent="1" source="NNJLGxEd74ArwUN1WmqN-6" target="NNJLGxEd74ArwUN1WmqN-8">
          <mxGeometry relative="1" as="geometry" />
        </mxCell>
        <mxCell id="NNJLGxEd74ArwUN1WmqN-4" style="edgeStyle=none;rounded=0;orthogonalLoop=1;jettySize=auto;html=1;exitX=1;exitY=0.3333333333333333;exitDx=0;exitDy=0;exitPerimeter=0;entryX=0;entryY=0.5;entryDx=0;entryDy=0;endArrow=none;endFill=0;" edge="1" parent="1" source="NNJLGxEd74ArwUN1WmqN-6" target="NNJLGxEd74ArwUN1WmqN-9">
          <mxGeometry relative="1" as="geometry" />
        </mxCell>
        <mxCell id="NNJLGxEd74ArwUN1WmqN-5" style="edgeStyle=none;rounded=0;orthogonalLoop=1;jettySize=auto;html=1;exitX=1;exitY=0.3333333333333333;exitDx=0;exitDy=0;exitPerimeter=0;entryX=0;entryY=0.5;entryDx=0;entryDy=0;endArrow=none;endFill=0;" edge="1" parent="1" source="NNJLGxEd74ArwUN1WmqN-6" target="NNJLGxEd74ArwUN1WmqN-12">
          <mxGeometry relative="1" as="geometry" />
        </mxCell>
        <mxCell id="NNJLGxEd74ArwUN1WmqN-6" value="&lt;font style=&quot;vertical-align: inherit;&quot;&gt;&lt;font style=&quot;vertical-align: inherit;&quot;&gt;&lt;font style=&quot;vertical-align: inherit;&quot;&gt;&lt;font style=&quot;vertical-align: inherit;&quot;&gt;&lt;font style=&quot;vertical-align: inherit;&quot;&gt;&lt;font style=&quot;vertical-align: inherit;&quot;&gt;&lt;font style=&quot;vertical-align: inherit;&quot;&gt;&lt;font style=&quot;vertical-align: inherit;&quot;&gt;&lt;font style=&quot;vertical-align: inherit;&quot;&gt;&lt;font style=&quot;vertical-align: inherit;&quot;&gt;&lt;font style=&quot;vertical-align: inherit;&quot;&gt;&lt;font style=&quot;vertical-align: inherit;&quot;&gt;ADMINISTRADOR&lt;/font&gt;&lt;/font&gt;&lt;/font&gt;&lt;/font&gt;&lt;/font&gt;&lt;/font&gt;&lt;/font&gt;&lt;/font&gt;&lt;br&gt;&lt;/font&gt;&lt;/font&gt;&lt;/font&gt;&lt;/font&gt;" style="shape=umlActor;verticalLabelPosition=bottom;verticalAlign=top;html=1;" vertex="1" parent="1">
          <mxGeometry x="-3766" y="353" width="30" height="60" as="geometry" />
        </mxCell>
        <mxCell id="NNJLGxEd74ArwUN1WmqN-7" value="&lt;font style=&quot;vertical-align: inherit;&quot;&gt;&lt;font style=&quot;vertical-align: inherit;&quot;&gt;&lt;font style=&quot;vertical-align: inherit;&quot;&gt;&lt;font style=&quot;vertical-align: inherit;&quot;&gt;Seleccione el perfil correspondiente&lt;/font&gt;&lt;/font&gt;&lt;/font&gt;&lt;/font&gt;" style="ellipse;whiteSpace=wrap;html=1;" vertex="1" parent="1">
          <mxGeometry x="-3566" y="193" width="120" height="70" as="geometry" />
        </mxCell>
        <mxCell id="NNJLGxEd74ArwUN1WmqN-8" value="&lt;font style=&quot;vertical-align: inherit;&quot;&gt;&lt;font style=&quot;vertical-align: inherit;&quot;&gt;&lt;font style=&quot;vertical-align: inherit;&quot;&gt;&lt;font style=&quot;vertical-align: inherit;&quot;&gt;&lt;font style=&quot;vertical-align: inherit;&quot;&gt;&lt;font style=&quot;vertical-align: inherit;&quot;&gt;Ingresar usuario &lt;br&gt;y contraseña&lt;/font&gt;&lt;/font&gt;&lt;/font&gt;&lt;/font&gt;&lt;/font&gt;&lt;/font&gt;" style="ellipse;whiteSpace=wrap;html=1;" vertex="1" parent="1">
          <mxGeometry x="-3566" y="283" width="120" height="60" as="geometry" />
        </mxCell>
        <mxCell id="NNJLGxEd74ArwUN1WmqN-9" value="&lt;font style=&quot;vertical-align: inherit;&quot;&gt;&lt;font style=&quot;vertical-align: inherit;&quot;&gt;Oprimir el módulo&lt;br&gt;&lt;/font&gt;&lt;/font&gt;&lt;font style=&quot;vertical-align: inherit;&quot;&gt;&lt;font style=&quot;vertical-align: inherit;&quot;&gt;gestión de usuarios&lt;/font&gt;&lt;/font&gt;" style="ellipse;whiteSpace=wrap;html=1;" vertex="1" parent="1">
          <mxGeometry x="-3571" y="363" width="130" height="60" as="geometry" />
        </mxCell>
        <mxCell id="NNJLGxEd74ArwUN1WmqN-10" style="edgeStyle=none;rounded=0;orthogonalLoop=1;jettySize=auto;html=1;exitX=1;exitY=0.5;exitDx=0;exitDy=0;entryX=0;entryY=0.5;entryDx=0;entryDy=0;dashed=1;" edge="1" parent="1" source="NNJLGxEd74ArwUN1WmqN-12" target="NNJLGxEd74ArwUN1WmqN-22">
          <mxGeometry relative="1" as="geometry" />
        </mxCell>
        <mxCell id="NNJLGxEd74ArwUN1WmqN-11" value="INCLUDE" style="edgeLabel;html=1;align=center;verticalAlign=middle;resizable=0;points=[];rotation=-1;" connectable="0" vertex="1" parent="NNJLGxEd74ArwUN1WmqN-10">
          <mxGeometry x="0.2235" y="1" relative="1" as="geometry">
            <mxPoint x="-27" y="1" as="offset" />
          </mxGeometry>
        </mxCell>
        <mxCell id="NNJLGxEd74ArwUN1WmqN-12" value="Oprimir cerrar&lt;br&gt;sesión" style="ellipse;whiteSpace=wrap;html=1;" vertex="1" parent="1">
          <mxGeometry x="-3553.5" y="503" width="95" height="50" as="geometry" />
        </mxCell>
        <mxCell id="NNJLGxEd74ArwUN1WmqN-13" style="rounded=0;orthogonalLoop=1;jettySize=auto;html=1;dashed=1;" edge="1" parent="1" source="NNJLGxEd74ArwUN1WmqN-15" target="NNJLGxEd74ArwUN1WmqN-9">
          <mxGeometry relative="1" as="geometry" />
        </mxCell>
        <mxCell id="NNJLGxEd74ArwUN1WmqN-14" value="EXTEND" style="edgeLabel;html=1;align=center;verticalAlign=middle;resizable=0;points=[];rotation=-15;" connectable="0" vertex="1" parent="NNJLGxEd74ArwUN1WmqN-13">
          <mxGeometry x="-0.106" relative="1" as="geometry">
            <mxPoint x="-6" as="offset" />
          </mxGeometry>
        </mxCell>
        <mxCell id="NNJLGxEd74ArwUN1WmqN-15" value="&lt;font style=&quot;vertical-align: inherit;&quot;&gt;&lt;font style=&quot;vertical-align: inherit;&quot;&gt;&lt;font style=&quot;vertical-align: inherit;&quot;&gt;&lt;font style=&quot;vertical-align: inherit;&quot;&gt;Añadir&lt;br&gt;usuario&lt;/font&gt;&lt;/font&gt;&lt;/font&gt;&lt;/font&gt;" style="ellipse;whiteSpace=wrap;html=1;" vertex="1" parent="1">
          <mxGeometry x="-3296" y="303" width="100" height="50" as="geometry" />
        </mxCell>
        <mxCell id="NNJLGxEd74ArwUN1WmqN-16" style="edgeStyle=none;rounded=0;orthogonalLoop=1;jettySize=auto;html=1;entryX=1;entryY=0.5;entryDx=0;entryDy=0;dashed=1;" edge="1" parent="1" source="NNJLGxEd74ArwUN1WmqN-18" target="NNJLGxEd74ArwUN1WmqN-9">
          <mxGeometry relative="1" as="geometry" />
        </mxCell>
        <mxCell id="NNJLGxEd74ArwUN1WmqN-17" value="EXTEND" style="edgeLabel;html=1;align=center;verticalAlign=middle;resizable=0;points=[];" connectable="0" vertex="1" parent="NNJLGxEd74ArwUN1WmqN-16">
          <mxGeometry x="0.1448" y="1" relative="1" as="geometry">
            <mxPoint x="15" y="-1" as="offset" />
          </mxGeometry>
        </mxCell>
        <mxCell id="NNJLGxEd74ArwUN1WmqN-18" value="&lt;font style=&quot;vertical-align: inherit;&quot;&gt;&lt;font style=&quot;vertical-align: inherit;&quot;&gt;Modificar&lt;br&gt;usuario&lt;br&gt;&lt;/font&gt;&lt;/font&gt;" style="ellipse;whiteSpace=wrap;html=1;" vertex="1" parent="1">
          <mxGeometry x="-3296" y="368" width="100" height="50" as="geometry" />
        </mxCell>
        <mxCell id="NNJLGxEd74ArwUN1WmqN-19" style="edgeStyle=none;rounded=0;orthogonalLoop=1;jettySize=auto;html=1;exitX=0;exitY=0.5;exitDx=0;exitDy=0;entryX=0.962;entryY=0.667;entryDx=0;entryDy=0;entryPerimeter=0;dashed=1;" edge="1" parent="1" source="NNJLGxEd74ArwUN1WmqN-21" target="NNJLGxEd74ArwUN1WmqN-9">
          <mxGeometry relative="1" as="geometry" />
        </mxCell>
        <mxCell id="NNJLGxEd74ArwUN1WmqN-20" value="EXTEND" style="edgeLabel;html=1;align=center;verticalAlign=middle;resizable=0;points=[];rotation=20;" connectable="0" vertex="1" parent="NNJLGxEd74ArwUN1WmqN-19">
          <mxGeometry x="0.0914" relative="1" as="geometry">
            <mxPoint x="15" y="5" as="offset" />
          </mxGeometry>
        </mxCell>
        <mxCell id="NNJLGxEd74ArwUN1WmqN-21" value="&lt;font style=&quot;vertical-align: inherit;&quot;&gt;&lt;font style=&quot;vertical-align: inherit;&quot;&gt;&lt;font style=&quot;vertical-align: inherit;&quot;&gt;&lt;font style=&quot;vertical-align: inherit;&quot;&gt;Cambiar estado&lt;br&gt;de usuario&lt;/font&gt;&lt;/font&gt;&lt;br&gt;&lt;/font&gt;&lt;/font&gt;" style="ellipse;whiteSpace=wrap;html=1;" vertex="1" parent="1">
          <mxGeometry x="-3301" y="433" width="110" height="50" as="geometry" />
        </mxCell>
        <mxCell id="NNJLGxEd74ArwUN1WmqN-22" value="&lt;font style=&quot;vertical-align: inherit;&quot;&gt;&lt;font style=&quot;vertical-align: inherit;&quot;&gt;&lt;span style=&quot;font-weight: 400;&quot;&gt;Confirmar cerrar sesión&lt;/span&gt;&lt;br&gt;&lt;/font&gt;&lt;/font&gt;" style="ellipse;whiteSpace=wrap;html=1;fontStyle=1" vertex="1" parent="1">
          <mxGeometry x="-3296" y="503" width="110" height="50" as="geometry" />
        </mxCell>
        <mxCell id="fHkMPUWU0p0HW0aizDeC-3" value="&lt;font style=&quot;vertical-align: inherit;&quot;&gt;&lt;font style=&quot;vertical-align: inherit;&quot;&gt;Ver información personal de docentes, directivas y estudiantes&lt;br&gt;&lt;/font&gt;&lt;/font&gt;" style="ellipse;whiteSpace=wrap;html=1;" vertex="1" parent="1">
          <mxGeometry x="-1872" y="346" width="150" height="90" as="geometry" />
        </mxCell>
        <mxCell id="fHkMPUWU0p0HW0aizDeC-4" value="&lt;font style=&quot;vertical-align: inherit;&quot;&gt;&lt;font style=&quot;vertical-align: inherit;&quot;&gt;Ver información personal de docentes, directivas y estudiantes&lt;br&gt;&lt;/font&gt;&lt;/font&gt;" style="ellipse;whiteSpace=wrap;html=1;" vertex="1" parent="1">
          <mxGeometry x="-2698" y="362" width="150" height="90" as="geometry" />
        </mxCell>
      </root>
    </mxGraphModel>
  </diagram>
</mxfile>
